/* XPM */
static char *_e536f7195114d7ba6639e5413623420tbl6mZQO6MlL3Mek[] = {
/* columns rows colors chars-per-pixel */
"64 64 116 2 ",
"   c None",
".  c #323232",
"X  c gray20",
"o  c #3E3433",
"O  c #473433",
"+  c #603935",
"@  c #763C36",
"#  c #694C39",
"$  c #725540",
"%  c #7B5E48",
"&  c #696154",
"*  c #803B34",
"=  c #813D36",
"-  c #8F3C33",
";  c #BA4539",
":  c #CD4234",
">  c #CC4334",
",  c #CD4335",
"<  c #CE4335",
"1  c #C24639",
"2  c #D14436",
"3  c #D34536",
"4  c #D64637",
"5  c #DA4738",
"6  c #DB4A3B",
"7  c #DD4839",
"8  c #DE4939",
"9  c #DB543F",
"0  c #E34A3B",
"q  c #E74C3C",
"w  c #85674F",
"e  c #8E7157",
"r  c #CF5C42",
"t  c #E85543",
"y  c #EA5E4A",
"u  c #C46445",
"i  c #CC755E",
"p  c #EB6751",
"a  c #ED7159",
"s  c #EE7A60",
"d  c #27B061",
"f  c #27B062",
"g  c #28B061",
"h  c #28B162",
"j  c #29B664",
"k  c #29B765",
"l  c #2ABB67",
"z  c #2BBE69",
"x  c #35B56B",
"c  c #739C5D",
"v  c #45BC6A",
"b  c #50B467",
"n  c #42BA75",
"m  c #50BF7F",
"M  c #67A460",
"N  c #7ABC77",
"B  c #39C46D",
"V  c #2DCC70",
"C  c #2ECC70",
"Z  c #2ECC71",
"A  c #48CE79",
"S  c #55C072",
"D  c #8A8C56",
"F  c #A38557",
"G  c #A18366",
"H  c #A68B6B",
"J  c #AA8C6D",
"K  c #B49675",
"L  c #B49976",
"P  c #BD9F7C",
"I  c #90B173",
"U  c #F18C6F",
"Y  c #F39676",
"T  c #F49F7D",
"R  c #62D181",
"E  c #6FD285",
"W  c #78CE9C",
"Q  c #C6A884",
"!  c #D0B18B",
"~  c #D7B692",
"^  c #D6BD92",
"/  c #D6BC93",
"(  c #D7BC93",
")  c #D7BD93",
"_  c #D9BB93",
"`  c #D5BD98",
"'  c #E8A781",
"]  c #F6A885",
"[  c #F7B18C",
"{  c #8CD58D",
"}  c #E1C59A",
"|  c #E2C49A",
" . c #E6CA9E",
".. c #EECC9E",
"X. c #FAC49B",
"o. c #E8CCA0",
"O. c #ECCDA2",
"+. c #FCCDA2",
"@. c #E4DDA9",
"#. c #F0D2A5",
"$. c #F2D5A7",
"%. c #F5D6A9",
"&. c #F5D7A9",
"*. c #FDD6A9",
"=. c #F1DEAD",
"-. c #FADBAD",
";. c #FCDDAF",
":. c #FFE0B0",
">. c #FFE0B1",
",. c #AEE1C4",
"<. c #BBE6CD",
"1. c #C9EBD7",
"2. c #D6F0E1",
"3. c #E4F5EB",
"4. c #F1FAF5",
"5. c white",
/* pixels */
"                                                                                                                                ",
"                                                                                                                                ",
"                                                                                                                                ",
"                                                                                                                                ",
"                                                                                                                                ",
"                                                                                                                                ",
"                                                                                                                                ",
"                                                f h h h h h h h h h h h h h h h                                                 ",
"                                    f h h h h h h h h h h h h h h h h h h h h h h h h h f h                                     ",
"                                f h h h h h h h h h h h h h h h h h h h h h h h h h h h h h h f                                 ",
"                              h h h h h h h h h h h h h h h h h h h h h h h h h h h h h h h h h h                               ",
"                            h h h h h h h h h h h h h h h h h h h h h h h h h h h h h h h h h h h h                             ",
"                            h h h h h h h h h h h h h h h h h h h h h h h h h h h h h h h h h h h h                             ",
"                            h h h h h h h h h h h h h x W <.1.1.1.1.<.W h h h h h h h h h h h h h h                             ",
"                            h h h h h h h h h h h h W 3.5.5.5.5.5.5.5.5.2.m h h h h h h h h h h h h                             ",
"                            h h h h h h h h h h h m 4.5.5.5.5.5.5.5.5.5.5.3.m h h h h h h h h h h h                             ",
"                            h h h h h h h h h h n 4.5.5.5.5.5.5.5.5.5.5.5.5.2.x h h h h h h h h h h                             ",
"                            h h h h h h h h h h ,.5.5.5.5.5.5.5.5.5.5.5.5.5.5.,.h h h h h h h h h h                             ",
"                            h h h h h h h h h h 4.5.5.5.5.5.5.5.5.5.5.5.5.5.5.4.h h h h h h h h h h                             ",
"                            h h k k k k k z z z z z z z z z z z z z z z z z z z z z z l k k k k h h                             ",
"                            Z Z Z Z Z Z Z Z Z Z Z Z Z Z Z Z Z Z Z Z Z Z Z Z Z Z Z Z Z Z Z Z Z Z Z Z                             ",
"                            Z Z Z Z Z Z Z Z Z Z Z Z Z Z Z Z Z Z Z Z Z Z Z Z Z Z Z Z Z Z Z Z Z Z Z Z                             ",
"                            Z Z Z Z Z Z Z Z Z Z Z Z Z Z Z Z Z Z Z Z Z Z Z Z Z Z Z Z Z Z Z Z Z Z Z Z                             ",
"                            Z Z Z Z Z Z Z Z Z Z Z Z Z Z Z Z Z Z Z Z Z Z Z Z Z Z Z Z Z Z Z Z Z Z Z Z                             ",
"                              Z Z Z Z Z Z Z Z Z Z Z Z Z Z Z Z Z Z Z Z Z Z Z Z Z Z Z Z Z Z Z Z Z Z                               ",
"                              # # # O.>.>.>.>.>.>.>.>.>.>.>.>.>.>.>.>.>.>.>.>.>.>.>.>.>.>.>.G # #                               ",
"                              # # J >.>.>.>.>.>.>.>.>.>.>.>.>.>.>.>.>.>.>.>.>.>.>.>.>.>.>.>.O.# #                               ",
"                          ) ) # w %.>.>.>.| e e | >.>.>.>.>.>.>.>.>.>.>.>.>.>.| e e _ >.>.>.>.K # ) )                           ",
"                        ) ) ) % | >.>.>.>.e # # e >.>.>.>.>.>.>.>.>.>.>.>.>.>.e # # e >.>.>.>.>.w ) ) )                         ",
"                      ) ) ) ) %.>.>.>.>.>.# # # # >.>.>.>.>.>.>.>.>.>.>.>.>.>.# # # # >.>.>.>.>.%.) ) ) )                       ",
"                      ) ) ) ) >.>.>.>.>.>.# # # # >.>.>.>.>.>.>.>.>.>.>.>.>.>.# # # # >.>.>.>.>.>.) ) ) )                       ",
"                      ) ) ) ) >.>.>.>.>.>.w # # w >.>.>.>.>.o.| |  .;.>.>.>.>.w # # w >.>.>.>.>.;.) ) ) )                       ",
"                      ) ) ) ) -.>.>.>.>.>.| $ $ | >.>.>.>.#.) ) ) ) o.>.>.>.>.| $ # _ >.>.>.>.>.%.) ) ) )                       ",
"                        ) ) ) %.>.>.>.>.>.>.>.>.>.>.>.O.P ) ) ) ) ) ) P | >.>.>.>.>.>.>.>.>.>.>.%.) ) )                         ",
"                          ) ) #.>.>.>.>.>.>.>.>.>.>.! # # H ) ) ) ) L # # ! >.>.>.>.>.>.>.>.>.>.$.) )                           ",
"                                >.>.>.>.>.>.>.>.>._ # # # # # # # # # # # # Q >.>.>.>.>.>.>.>.>.                                ",
"                                >.>.>.>.>.>.>.>.>.% # # # # # # # # # # # # $ >.>.>.>.>.>.>.>.>.                                ",
"                                >.>.>.>.>.>.>.>.>.$ # # # # # # # # # # # # $ >.>.>.>.>.>.>.>.>.                                ",
"                                >.>.>.>.>.>.>.>.>.O.K e # # # # # # # # e K O.>.>.>.>.>.>.>.>.>.                                ",
"                              Z S +.>.>.>.>.>.>.>.>.>.>.>.>.>.>.>.>.>.>.>.>.>.>.>.>.>.>.>.>.+.N Z                               ",
"                            Z Z D t a a a a a a I R R R R R R R R R R R R R R I a a a a a a F Z Z Z                             ",
"                          Z Z Z r q q q q q q q r B Z Z Z Z Z Z Z Z Z Z Z Z B r q q q q q D Z Z Z Z Z                           ",
"                        Z Z Z v q q q q q q q q q r b Z Z Z Z Z Z Z Z Z Z b r q q q q 9 c A R R Z Z Z Z                         ",
"                        Z Z E ' q q q q q q q q q q q u M B Z Z Z Z B M u q q q q q p ..>.>.>.>.=.E Z Z                         ",
"                        Z E >.Y q q q q q q q q q q q q q q q q q q q q q q q q q q +.>.>.>.>.>.>.>.E Z                         ",
"                        Z @.>.Y q q q q q q q q q q q q q q q q q q q q q q q q q q >.>.>.>.>.>.>.>.@.Z                         ",
"                        { >.>.Y q q q q q q q q q q q q 0 5 3 3 3 3 5 0 q q q q q q >.>.>.>.>.>.>.>.>.{                         ",
"                          >.>.Y q q q q q q q q q q q 5 , , , , , , , , 5 q q q q q X.>.>.>.>.>.>.>.>.                          ",
"                          >.>.Y q q q q q q q q q q 7 , , , , , , , , , , 7 q q q q T >.>.>.>.>.>.>.>.                          ",
"                          >.>.[ q q 6 = + + + + @ 1 , , , , , , , , , , , , 0 q q q y *.>.>.>.>.>.>.>.                          ",
"                          >.>.X.q ; X X X X X X X X * , , , , , , , , , , , 3 q q q q s >.>.>.>.>.>.>.                          ",
"                            >.>.i o X X X X X X X X X - ,             , , , , 7 q q q q ] >.>.>.>.>.                            ",
"                              >.& X X X X X X X X X X X                 O * , 4 q q q q q U ~ ` >.                              ",
"                                X X X X X X X X X X X X                 X X X X X X X X X X X X                                 ",
"                                X X X X X X X X X X X X                 X X X X X X X X X X X X                                 ",
"                                  X X X X X X X X X X X                 X X X X X X X X X X X                                   ",
"                                      X X X X X X X                         X X X X X X X                                       ",
"                                                                                                                                ",
"                                                                                                                                ",
"                                                                                                                                ",
"                                                                                                                                ",
"                                                                                                                                ",
"                                                                                                                                ",
"                                                                                                                                "
};
