/* XPM */
static char *out[] = {
/* columns rows colors chars-per-pixel */
"64 64 87 1 ",
"  c #B13627",
". c #B33927",
"X c #B23628",
"o c #B7382A",
"O c #BC392B",
"+ c #C53D2E",
"@ c #C93F2F",
"# c #CC3F30",
"$ c #B7481F",
"% c #B94F1C",
"& c #BD531C",
"* c #B64222",
"= c #BB4424",
"- c #BC4920",
"; c #996732",
": c #9C6933",
"> c #A16D35",
", c #B56F3A",
"< c #A57036",
"1 c #A87137",
"2 c #AB7439",
"3 c #B1773B",
"4 c #BC733C",
"5 c #B47A3D",
"6 c #B97E3F",
"7 c #C2551C",
"8 c #C65A1C",
"9 c #CC5D1D",
"0 c #C66D0F",
"q c #CC7F07",
"w c #C5720C",
"e c #CA750D",
"r c #C67808",
"t c #CB7B09",
"y c #C36414",
"u c #C56912",
"i c #CB6C13",
"p c #CB611A",
"a c #C64927",
"s c #C6442A",
"d c #CE422E",
"f c #CD4B29",
"g c #CC5423",
"h c #CE4131",
"j c #D34232",
"k c #DE4635",
"l c #D75D3B",
"z c #DD5F3D",
"x c #E14736",
"c c #E34837",
"v c #E64A38",
"b c #E94A39",
"n c #F54F3D",
"m c #ED573D",
"M c #EE5A3F",
"N c #F7513E",
"B c #FB513F",
"V c #CB6C3D",
"C c #D4623C",
"Z c #DB633D",
"A c #C2753D",
"S c #C5793F",
"D c #E1613F",
"F c #BA7F40",
"G c #FB5140",
"H c #C67B40",
"J c #D37140",
"K c #E56440",
"L c #BC803F",
"P c #CA8105",
"I c #CE8108",
"U c #D18506",
"Y c #D68906",
"T c #DB8C07",
"R c #DD8D08",
"E c #DF9007",
"W c #E39207",
"Q c #E59308",
"! c #E99608",
"~ c #EE9909",
"^ c #F29C09",
"/ c #BE8140",
"( c #C28442",
") c #CB8B46",
"_ c #CE8C48",
"` c #D28F49",
"' c #D4914A",
/* pixels */
"2226L//////62222F2FF2F2F2F2FF1FF1FF1FFF122222233F33F5553F3222222",
"2266///////662221F2FF2FFF,2FF1F11FF1F1FFF1222FF33FF33FF32FF32222",
"26L///LL/LLLL6221FFF2F222FF2FF2FFFFF1F1F212223F2322F33F3F2F2F222",
"6L//LL((((((/(651FFFFFFFFF2F1FF2F11FF1FFF32FFFFFFFFFF3FF3F3F3222",
"LL/////()___''''''''''''__F,F22FFFF1FFH'''''''''``'``__(6655522F",
"L(//L()'''''''``````'````_F22FF211FF1F_'````````````````'(65523F",
"////(_'`(632>>>>>>>>>>>>>>FFFF2FFF1FF>>>>>>>>>:>>>>>223(''(6325/",
"////(''6>;;;;;;;;;;;;;;;;:2FF2F2F1FF1F:;;;;;;;;;:;;;;;:>5`'L225/",
"//L(``/>;;;;;;;;;;;;;;;;;:2F553FFF>1:<;:;:;;;;;;;;;;;;;;:('(223L",
"L//(``2:;;:;:::::::::;;;;>22F5551FF1F1::::::;;;;;:::;:;;;2`)3225",
"6L/('`>;;;2366L211111122233F2F55FF>FFFFFFF//FFF123532<:;;>''3222",
"36/('`>;;:6LL65,CzzKzzzzzKKzKzzKC=klKKKKKKKKKDllCZZ433:;;>''3222",
"25L(''<;;:6664Cmbbbbbbbbvvbvvvbvk+kGkGGkccGkkGGkbbnmZ4;;;<_'5222",
"225/'`>;;:662CNxhhhh########hh##+O+#+O####hh@O#@d#jkNC;;;:''6355",
"322L'`>;;:332Nvdh#hh#hhhj###hhhh#O###hhhhhhhhhhh#hdhvN;;;>''L555",
"6323``>;;:222Bx@hhhhhhh#j###hhhh#O###hhhhhhhhhhhhhh#kG:;;>_'6555",
"3535'`>;;;1<2Gk#hhhhhhhhhhjhhhhh@O+#hhhhhhhhhhhhhhhhkB:;;>`'6555",
"5535'`>;;:1FFGkhhhhhhhhhhhhhhhhh#OhdhhhhhhhhhhhhhhhhkB:;;>`'6555",
"5356'`>;;:>F2Gj#jhhhhhhh#hhhhhhh+OhhhhhhhhhhhjhhhhhhkB:;;>''F555",
"565L'`>;;;12FGk#hhhhhhhhdhhhhhhhhOhhhhhhhhhhhhh#hhhhxG:;;>`'F555",
"5556'`<;;:2FFGj+++#+h++h+@++@+@@+ossd++@h++h++@++++@jN:;;>`'6555",
"5556'`:;;;1FFjOXXXXXXX  XXXX   $&&&%.XX XX   XXXXXX Oj:;;>`'F355",
"5556'`<;;:122bj+++++++OO+@+@a80rttqruyas+++o++++++++jb:;;>``F555",
"555L'`>;;:122Gk@hhhhhh+O#hdgetYEWWWWTIepdhhO+hhhhhhhkG::;>``F555",
"556F''>;;;122Gkhhhhhhh++#hgeY!~^^^^^^~EIpf#O+#hhhhhhkG:;;>``F555",
"5536_/>::>122Gkhhhhhhh+O#geT~^^^~~~~^^^WIpdO+hjhhhh#kG>::>__F33F",
"F535/F22F222:Gk#hhjhh#+OftY~^^!YYYYYE~^^Eq9++#jhhjj#kG3232FFF33F",
"35552FF/2222FGkhhhhhj#+=pI!~^QUPPPPPPE~^~Yi=+@hhhh##kG2FF5F333F3",
"5533F33322222Gkhhhhhhh+=eE^^!IPPUEYPPPE^^QI7OhhhhhhhkGF3F3F3F3F2",
"F5F53FF322222Gkhhhhhhh+pIQ^~TPPPE^!UPPU!^~YuadhhhhhhkG2F2F2F2F3F",
"33F5333222222Gjhhhhhhh=yI~^~UPPP!^~UPPPW^^TwahhhhhhhkGF2F2F2F2F2",
"3F35F32212222h=ooo    XyU~^!PPPP!^~IPPPE^^Rw*XXXXXXXOj2F2F2F3F3F",
"5555522222222v#OOOOOOO+yU~^!PqPq!^~UPPPT^^Rw=OOOOOOOhc5655555555",
"6555222222222Gk#hhjhhhdiU~^!PPPP!^~UPPPE^^TefjjhjhjhkB55555F5555",
"5552222212222GkhhhhhhhhpIQ^^YPPPQ^~UPPU!^~YifhhhhhhhkN355555F5F3",
"5322222222255GkhhjhjhhhftT~~!PqPYETPPPT^^QtghhhhhhhhkG3555552555",
"2222222222553Gk#hhhhhhhd9U!^^QUPPPPPPE~^~YifhjhhhhhhkG225555F555",
"222252112256FGk#hhhhhjhhfeY!^^!TUYUYQ^^~Wt9hhhhhhhhhkG22226F3552",
"2223__>:::252Gkhhhhhhhhhj9qY!^^^^~~^^^~EPehhhhjjhhhhkG:::>__F222",
"2223''>;;;55FGkhhhhhhh@j@fgeYQ~^^^^^^!EP9fhhhh##hhhhkG:;;>''2222",
"2223''>;;:355Gkhhjhh##j##jhgeqYWQW!ERItphhhh##j#hhhhxG:;;>`'5222",
"2223'_>;;:355k+ooooOOooooooO-yyrrPrrwy&ooOOoooooooOosk:;;>`'2222",
"2223''>;;:255ksooOoooooooooooO*7&7&&-ooooooXoooOoooo+k::;>`'3222",
"2223'_>;;:365Gkhhhhh##+Oh#hh#hhdhddhhjhhhjhO+h#hj#hhkG:;;>`'3222",
"22<L''>;;:355Bkhh#j###@Ohh#hhhhhhhhhhhhhhh#O+#h###hhkN>;;>_'3222",
"2222'_>;;:355Bkhhhh#j#++hhhhhhhjhhhhhhhhhh#O@#hhhhh#xN:;;>''3222",
"2225'`>;;:355Bk#hh#j##+OhhhhhhhhhhhjhhhhhhhO+##hhhhhkG:;;>''3222",
"2222'`>;;:355Bxhhhj##@+OhhhhhhhhhhhhhhhhhhdO+#jhhhhhkN:;;>_'3222",
"<225'`>;;:2L2Nkd####x#+++###hhhhhjhhhhhh##@++##dhhhhxB:;;<`'32<2",
"2222'`>;;:2LLMmh######++@###hhhh#hh#j#h###@O@d#dj#hjnM:;;>''3323",
"2225'`>;;>255Amb####k##+##jjjjjhjjjjjjjjjj#+@jdjjjjbMS:;;>''LLLL",
"LL22'`>;;;2235VmGGGGnnb#BnBBnnnGnnnnnnnGBBnjxnNNNNMGJL:;;>`'////",
"/LL5'_>;;:12223,F,,,,,,,,4A44A444,,,4,,,,,,,3ASSSSHH/6:;;>''////",
"//LL'`<;;;>121<212>122>21335555552222111111<225L6LLL6<;;;<''(///",
"////_'5:;;;::::;:;:;;;:::>355533552221:::;:::;:::::::;;;;3'_////",
"////)'L>;;;;;;;;;;;;;;;;::23555F555221:;;;;;;;;;;;;;;;;;<('_////",
"LLLLL'_L>;;;;;;;:;;;;;::;;23F2F2555521:;;;;;;;;;;;;:;:::5''(LLLL",
"LLLLL(''L1>>>>>>>>>>>>>>>>F33F3F555552>>>>>>>>>>>>>:>:2/''_LL(L(",
"LLLL22(''````````````````_3FF2F25F5555_````_````'_'''_''')LL/LL(",
"LLL2222L)`'''''''````'''``FF2FF255555F`'''''''''''''''_)L35L/(LL",
"LL2<222225333333F2FFFFFFFF3FF2F22F5553F35525353535L6/6652235LLL/",
"522222222222222222F22F33F3F33F3FF5555F53222222223553553332225LLL",
"22222256L52222223FF2F,2F2F2FF2F53F555F55522<22225555555553222222",
"222225LLLL6222222F2F2FF3F2F33F23F2555555522222255555555555522222"
};
