/* XPM */
static char *out[] = {
/* columns rows colors chars-per-pixel */
"64 64 245 2 ",
"   c #3B383B",
".  c #501012",
"X  c #651C19",
"o  c #57251F",
"O  c #7A261D",
"+  c #532E2D",
"@  c #473D35",
"#  c #772721",
"$  c #6B382F",
"%  c #5B461B",
"&  c #6A5111",
"*  c #5B7503",
"=  c #7D6208",
"-  c #676A18",
";  c #7B6317",
":  c #514D2D",
">  c #564C39",
",  c #674A3A",
"<  c #6E5535",
"1  c #536E2C",
"2  c #786631",
"3  c #3C3D44",
"4  c #3E4046",
"5  c #444448",
"6  c #594849",
"7  c #4B4C55",
"8  c #564959",
"9  c #5A5559",
"0  c #6B474C",
"q  c #76464B",
"w  c #754E55",
"e  c #6D5150",
"r  c #766647",
"t  c #6D6652",
"y  c #5B5C64",
"u  c #73576C",
"i  c #65676B",
"p  c #676974",
"a  c #766870",
"s  c #8A2A16",
"d  c #9A2812",
"f  c #A62B14",
"g  c #B13519",
"h  c #8E332C",
"j  c #CC3B1D",
"k  c #DC3E20",
"l  c #B14B15",
"z  c #8B6C05",
"x  c #85690E",
"c  c #987707",
"v  c #9C7A05",
"b  c #896E14",
"n  c #997916",
"m  c #A17E05",
"M  c #A17F09",
"N  c #A77C1A",
"B  c #91522C",
"V  c #AF5029",
"C  c #9C6B2B",
"Z  c #997C28",
"A  c #8A6F30",
"S  c #996732",
"D  c #9C6933",
"F  c #966939",
"G  c #A5632F",
"H  c #AC7B2A",
"J  c #A66833",
"K  c #A16D35",
"L  c #B96C36",
"P  c #AB7535",
"I  c #AA7737",
"U  c #AC7439",
"Y  c #B47C34",
"T  c #B0773B",
"R  c #B47A3D",
"E  c #B97E3E",
"W  c #D6641E",
"Q  c #DA4322",
"!  c #D7582D",
"~  c #E74523",
"^  c #F74D29",
"/  c #F0582C",
"(  c #CE672E",
")  c #86474B",
"_  c #8B4F56",
"`  c #AC5A5C",
"'  c #886C47",
"]  c #9B6D4E",
"[  c #887248",
"{  c #95774A",
"}  c #867758",
"|  c #957B53",
" . c #AC7A43",
".. c #B47E43",
"X. c #A27C57",
"o. c #9B5E63",
"O. c #AD5F62",
"+. c #886A75",
"@. c #88767B",
"#. c #987C78",
"$. c #A86469",
"%. c #B3676C",
"&. c #A7747C",
"*. c #C37B7D",
"=. c #729307",
"-. c #778B62",
";. c #A58205",
":. c #AA8605",
">. c #AD8905",
",. c #A7830B",
"<. c #B28C05",
"1. c #B28B0A",
"2. c #B99306",
"3. c #A98516",
"4. c #B38916",
"5. c #B09512",
"6. c #93B505",
"7. c #96812B",
"8. c #9E8338",
"9. c #A48628",
"0. c #B78527",
"q. c #A39F25",
"w. c #A2853A",
"e. c #B88334",
"r. c #BD803F",
"t. c #B79B30",
"y. c #C59C07",
"u. c #CDA406",
"i. c #C8A309",
"p. c #D4AA06",
"a. c #DCB607",
"s. c #D5AA19",
"d. c #DDB51C",
"f. c #E4BA08",
"g. c #C79529",
"h. c #C28839",
"j. c #D2AD2A",
"k. c #9AC902",
"l. c #A7C908",
"z. c #A6D900",
"x. c #AAE100",
"c. c #B6D135",
"v. c #DBC211",
"b. c #E9C208",
"n. c #ECC40A",
"m. c #EDCB09",
"M. c #F4C909",
"N. c #ECD40F",
"B. c #F8D609",
"V. c #FCDB0A",
"C. c #EAC918",
"Z. c #F4D912",
"A. c #F6E00A",
"S. c #FDE50A",
"D. c #FDEA0A",
"F. c #FDF20B",
"G. c #FEF90D",
"H. c #FBE714",
"J. c #EAD026",
"K. c #F8E12A",
"L. c #9E8445",
"P. c #9A8357",
"I. c #9D8558",
"U. c #99895A",
"Y. c #A58947",
"T. c #BE8140",
"R. c #B5834B",
"E. c #A68D53",
"W. c #A38B5B",
"Q. c #A89457",
"!. c #B79151",
"~. c #AAAD47",
"^. c #989171",
"/. c #A98F66",
"(. c #AA9465",
"). c #B49867",
"_. c #A99376",
"`. c #BBA46C",
"'. c #BEA377",
"]. c #C28442",
"[. c #CB8B46",
"{. c #CE8C48",
"}. c #D28F49",
"|. c #D4914A",
" X c #CA9F57",
".X c #D2B649",
"XX c #C29F78",
"oX c #CCB06A",
"OX c #C6AA73",
"+X c #C7A974",
"@X c #D3B67B",
"#X c #D7B97C",
"$X c #BBC843",
"%X c #CCCF4A",
"&X c #F1D651",
"*X c #D9CE69",
"=X c #F1D662",
"-X c #7E5C82",
";X c #786B83",
":X c #777786",
">X c #8C788F",
",X c #A57B85",
"<X c #988986",
"1X c #928D8C",
"2X c #898995",
"3X c #959797",
"4X c #AA9B87",
"5X c #AD8F90",
"6X c #AEAB91",
"7X c #A9A69C",
"8X c #B7AA95",
"9X c #9A97A6",
"0X c #A29EA7",
"qX c #A6A5A5",
"wX c #B3AAAA",
"eX c #AAA8B4",
"rX c #B8B7BA",
"tX c #C09499",
"yX c #DBBD81",
"uX c #C6AC90",
"iX c #D0B6AA",
"pX c #DEC585",
"aX c #E3C385",
"sX c #EACB89",
"dX c #F0CF8D",
"fX c #ECD48E",
"gX c #F8D894",
"hX c #E8E993",
"jX c #FDE49C",
"kX c #F0E99D",
"lX c #D3C9B6",
"zX c #EBE4A3",
"xX c #FBEDA2",
"cX c #FDF6A9",
"vX c #BBAEC4",
"bX c #BABBC2",
"nX c #C7BFC6",
"mX c #C6C3CA",
"MX c #D2CFCE",
"NX c #D5D7DB",
"BX c #E3D9C9",
"VX c #ECE6D5",
"CX c #DEDFE2",
"ZX c #E6E7E9",
"AX c #F2F2F0",
/* pixels */
"U U U E T.T.T.T.T.T.T.r.I I U I T R R R R R R R R R R R ..R R R R R R R R R R R R U U U U U T T E R R R R R R R R R R U U U U U ",
"U U E E T.T.T.T.T.T.T.T.r.I U U T R R R R R R R R R R R R R R R R R R R R R ..R R P U U U R E R R R R R R R R R R R R T U U U U ",
"U E E ].R.T.].].T.T.T.T.r.R T U U R R ....R R R R R ..R R R R R R R R R R R R R T U U U T R E R E E E T T R T E E R R R R U U U ",
"E r.T.r.( ].E E T.T.].T.].].E  .T E E ..E E E E E E R R R R R R R R R R R R R E T T T T R ..E E E E ..R E E E R R R R R R U U U ",
"E ].T.T.].E ].].[.{.{.{.|.|.|.|.|.|.|.|.|.|.|.|.|.}.E R R R R R ..R R R R E }.|.|.|.|.|.|.|.|.|.}.}.|.|.{.{.{.].E E R R R U U R ",
"T.r.T.T.h.].{.|.|.|.|.|.|.}.}.|.}.}.}.}.}.}.}.}.}.{...R R R T R R R R R R E {.}.}.}.}.|.}.}.}.}.}.}.}.}.}.}.}.}.}.].E E R U R T.",
"T.T.T.T.E {.}.}.].R T U K K K K D K K D K K D K J K T R R R R R R R R R T U J K K K K K K K K K K K K K U U R ].}.|.].E U U R r.",
"T.T.T.T.[.}.}...K D S S S S S S S D D D D D S S S J L R R R R R R R E T U U D S S S S S S S S S S S S S S S D K E }.|.r.U U E r.",
"( ].].E {.|.].K S S S S S S S S S S S S S S D S J ! Q P R T R R R R T T I U D D D D F S S S S S S S S S S S S S D T.|.].U U U T.",
"R.].E ].|.}.U S S S S S D D D D S S D D D S D D / ^ g j V L T R R R U U I I D D D D D D D S S D D D D S S S S S S U }.[.R U U R ",
"T.T.].].|.}.K S S D P E R E E U K U U U U U J ( / ~ f f k f B Y T T U U r.T.E E r.R T.r.E E U U U T U T U K S S S K |.|.T U U U ",
"I T...h.|.}.K S S D R r.r.E E U U U U U U U U ! ^ ~ d ~ j d V L T U U R R.( ].].T.T.T.T.T.r.R U U U R R R R D S S K }.|.T U U U ",
"I ....].|.|.K S S D E r.E T U U U U U U  .( ! ~ ^ k f k s B P P U U T E r.h.].E T.T.].r.h.h.r.T U U U T U U D S D D }.|.R U T U ",
"I I R h.|.}.K S S D E E U U U U U U U U I ! ^ ^ ^ k f f s G P P U U U E E ..E ].T.r.].g.Z.Z.C.s.T U U U U U D D S K }.|.R R R T ",
"T U U ..|.}.K S S D R U U U U U R T T U I G k ^ ~ j s # B G K P U U U E E ].E ].T.g.J.n.m.a.u.i.0.P U U U U D S S K |.|.r.R R R ",
"R T U R |.|.K S S D P U U U R R R R T T U T G g V u t 2 9.9.9.( L  .U T E ].].E r.C.D.b.i.N.B.m.u.Y U U U U D S S K |.|.R R R R ",
"R R T R }.}.K D S D U U U R R R R R R R U U U J 7.q.k.k.k.k.6.( Q { U P  .[.T.T.r.s.j.t.m.b.p.u.u.4.T U U U D D S D }.|...R R R ",
"R R R R }.}.K S S D U U R R R R E R R R R U L l.z.x.z.z.z.k.6./ d B U R.uX8XR.r.T.9.8XE.2.2.a.v.i.,.U U U U D D D K }.|.E E R R ",
"R R E E }.}.K S S D U R R R R R R R R E ..( W z.z.x.z.z.k.k.5.g & * ).lXqX/.T r.I.~.5.n 3.N.A.n.u.,.P T T T D S S K }.|...R R R ",
"R R R E |.}.K S S S P  .R R R R R R R R.oX( ^ W l.z.z.z.c.$X~.< : * ^.8X4X .U F a t.p.<.i.u.2.<.>.1.H T E U D S S K }.|.E R R R ",
"R R E ..|.}.K D S D P T E Y R R R R R R. X2.l j j 5.c.hXcXxX`.fXoX~.pXfXyX!.U e p [ a.f.S.5.n :.<.1.Y T ..U D S D K }.|.E R R R ",
"R R R E |.}.K D S S I g.C.C.d.h.R R R R.Y 6.6.- 1 ~.kX(.hXcXfXjXfX#XsXdX+XW.I r i i 3.f.m.p.1.<.<.4.T E E T D S S K }.|.E R R T ",
"R R R E }.}.K S S S P Z.m.A.S.f.g.R.+XuX`.k.k.=.: hXcXcXcXcXjXgXsX@X).+XU.[ t.A 5 p t c ;.>.:.<.M U E T T T D S S K }.|...R R R ",
"R R R ..|.}.K S S K d.V.F.F.V.p.1.).wXqX6X$X%X%X*XcXcXcXxXjXgXdXaX@X(.I.P.[ 8.q.4 y i < z ;.;.; < U T E E U D D S K }.|.E R R R ",
"R R R E }.}.K S S H S.V.m.b.f.v z K X.'.zXcXcXcXcXxXxXxXjXgXdXaX@X`.W.| | [ A ,.> 7 7 7 @ : @ 6  .R E T E T D D S K }.}.E E T R ",
"R E R E {.{.K D D 0.a.i.m m <.x r y 9 pXcXcXcXcXjXjXjXgXgXdXaX@XOX(.P.P.{ [ A x x > 4 4 3   , U U R T E R T D D J K {.}.E R E R ",
"R R T R ..E R U T j.v.b x 2.i.U.p 8 y gXjXgXjXjXgXdXdXdXaX#X@XOX).W.| P.A [ 2 = z v b - : F  ...R R ..T R T U T U T ..E ..T T R ",
"R R R R R R E R T g.Z.5.,.M.~.2X:Xi y sXdXaX#XaXsXaXyX#X@X+X)./.P.P.I.{ r [ ; = z c 3.Q.1 C OX`.R R T E R R E R E T E T R T E R ",
"R R R R R R R T I P 4.2.m.C.<X:X:Xp > @XyXOX(.OX+X+XXX).).W.I.U.P.U.| , [ t A = z b U.7X6X- F X.T R R R E T R R E R R R R E T R ",
"R R R E R R E U U U P g.m.t.p p p 7 b .X@X@XOXP.W.W.W.W.P.I.U.P.' + o < r 2X^.A z % t 1XwX-.o J U R T E T ..R R T T E R R R E R ",
"R R R R R E R U U U P P 9.2 7 y y : u.Z.oXOXOXW.' < ' } ' ' # # X . . [ a 2X2X^.v = : -.3X6X1 J U U R R E T T T T T R R E R T R ",
"R R R R ..L U U U U U U U F 5 4 4 ; a.V.C.Q.W.(.aX[ . . O # # # X . + } -.3X9X2X9.;.% t 1XwX-.L. .U U R R T E E T ..T ..T T E R ",
"T E T ..U U U U U U U U U U D 6   ; y.f.B.f.!./.+XsX/.o s h h # . o ' , 0 @.qX2XQ.<.= > -.<X^.U.w.U U U ..R R R R R R R R R R R ",
"R T E R U U U U U U U U U U U K 2 S H y.f.f.*X<X} U.yXyXo.$ h B ] P.r $ 0 +.3X3X(.2.c % A C.Z.N.d.e.U U R.T...R R R R R R R E R ",
"R R R U U U U U U U U U U U U U J U U H 4.y.lXZXeX8 6 ' +X#X@XOX| e 6 q o.q #.0X_.5.;.c N.G.G.F.S.n.g.oXVXlXuXR E R R R R R R R ",
"T R U U U U U U U U U T R R T T U U U T P Y BXnXo.` ) 0 $ $ $ 5 9 p 7 8 q q a 0X3X9.;.i.F.G.G.F.S.B.=XsXlX^.U.T R R R R R R R R ",
"U U U U U U U U U U T E R R R R T U U U U ..BX,X%.%.$.o.e 0 8 y :X9Xu 8 6 q w <X7XY.;.a.D.F.F.D.V.K.VX8X3.c m Y R R R R R R R T ",
"U U U U T T U U U U E T R R R R E T U U U  .BX,X,XiXeXNXeXvXNXbX0XvX-Xu 7 ) q @.7XE.,.a.V.D.D.V.V.D.j.3.n 8.7.H U T E E ..R R T ",
"U U U U {.{.K D D D U E R R R R R T R U U  .iX5X,XZXvXAXmXvXAXZX9XCX>X-X8 ) q @.7XL.M u.M.B.V.V.V.B.y.9.E.Q.Y.Z S K {.}.R T U U ",
"U U U R |.}.D D D D T T R R R R R E T E T U XXtX,XmXvXmXbX2XCXCX:XbX9X-X8 _ q @.7XE.H y.p.f.V.B.S.n.3.Y.Y.Y.8.C S K }.}.T U U U ",
"U U U U |.}.K S S D T R R R R R R E E T T U R.iX&.>XqX9XeX9X2XeX;X2XNX;X8 _ 0 >X4XE.H ;.:.y.n.V.V.p.9.Y.8.Y.w.C S K }.|.R U U U ",
"U U U R |.|.K S S D T R R R R R R T T ..R R  .8X,X,X2XeX:XbX:X>XeXeXmX;Xe ) e 1X(.E.n c c c u.M.B.y.8.Y.8.Y.Z S S K }.}.R U U U ",
"U U U T |.}.K S S D R R R ..R R R R E R ..L T !.tX,XeXZXrXAXeXbXeX<X+.u _ q u 6XE.8.v v c ; 7.u.f.1.8.Y.Y.w.C D S K }.|.T U U U ",
"U U U U |.}.K S S D T R R R R R R R T R R  .U  .4X,X>XnX0X,X&.,X>X_ %._ w e #.W.E.9.v c = t U.4.2.:.8.Y.Y.Y D S S K }.}.T U U U ",
"U U U T |.}.D S S D T R R R R R R R R R R T U U Y.4X&.@.$.O.` $.O.*.o.w w +.W.Q.9.,.;.c = 2  .r.3.<.n 9.e.R D S S K }.|.T U U U ",
"U U U T |.}.K S S D T R R R R R R ..R R R T U U T T.`.o.O.o.+.+.5X+.i +.&./.E.9.;.>.;.;.c z c Y E 0.0.e.r.E D S S K }.|.T U U U ",
"U U U T |.|.K S S D R R R R R R R R R R T U U U P s.F.%X#.1XmXNXqX3XeX6XL.7.,.;.,.>.:.;.;.v v ;.3.0.E h.].E D S S K }.|.U U U U ",
"I U P T |.|.K S S D T R R R R R R R R T T U U U U d.F.D.J.BXCXMXmXiXW.n ;.3.3.:.>.>.>.:.>.>.<.>.1.0.R.( r.E D S S K }.}.T U U U ",
"U U U U }.}.K S S D T R R R R R R R T U U U U U U d.S.S.V.&XVXMX`.9.M M H U P H N 4.1.<.1.2.4.4.e.T.T.T.T.R D S S K {.|.T I U U ",
"U U U T |.}.K S S D U E E R R R ..T T U U U U U U g.V.V.B.M.j.4.:.;.M N P U U U P T Y Y e.e.h.r.T.T.T.T.T.r.D D S K |.|.R T U U ",
"R I U T |.}.K S S D U R R R R R T U U U U U U U U 0.n.B.M.f.u.<.>.:.v M P U U U P T T E E ].r.T.T.T.T.T.T.r.D S S K |.|.r.E r.T.",
"T.R T T |.|.K S S S P T R T R R  .U U U U U U U g.Z.D.V.M.a.2.<.>.>.>.;.P U U U U U U R E E T.T.T.T.T.T.T.T.D S S K |.|.T.T.T.T.",
"T...E R }.}.K S S D K U U U U T U U U U U U U U oXK.D.S.F.A.f.u.2.>.>.:.J U U P U U U U T E r.r.T.T.T.T.T.R D S S K |.|.T.T.T.T.",
"r.r.E ..}.}.J S S D K U U K U U U U J U K U U U BXBX.X&XH.V.M.f.u.2.>.,.U U K U U U K U P I R E r.r.r.T.R I S S S K |.|.].T.T.T.",
"T.T.T.h.}.}.R D S S S D S D S S S D D S D D D K ).lX^.ZXoXb.u.2.2.<.4.P U U D D D S D D S D D D S D D D D S S S D T |.{.].T.T.T.",
"T.T.T.].{.}.].K S S S S S S S S S S S S S S S S D ] ..uXR.0.0.0.Y Y R T U U D S S S S S S S S S S S S S S S S S K ].|.[.T.T.T.T.",
"T.T.T.T.].|.|.R K S D S S S S S D S S S S S S S S D U E E T ..R R R R T T U D S S S S S S S S S S S S S S F F K R |.|.].r.T.T.T.",
"T.T.T.r.R ].|.|.E U K K K K K K K K K K K K K K K K T T T E T R R R R R T U K K K D K K K K K K K K K D D K I ( |.|.{.].h.T.T.T.",
"T.T.r.R T T ].|.}.}.}.}.}.}.}.}.}.}.}.}.}.}.}.}.}.{.E E R R R R R E R R R E {.}.{.|.|.{.|.}.}.}.|.|.|.|.|.|.}.|.|.[.r.r.T.T.T.T.",
"T.r.R I U U T E [.}.}.|.|.|.|.|.}.|.|.}.|.|.|.|.}.}...R R R R R R R R R R E }.}.|.|.|.|.|.|.|.|.|.|.|.|.|.|.|.[.E T R r.T.T.T.T.",
"r.R U U U U U U T T T T T T T T T R E E E ..E E ..E R R E T R T R T R R T T ..R R T R T T T T T T R r.R E ..E T U U U R ..E h...",
"T U U U U P U U U U U U U U U U T R R R R R R R E R R R T E R R E E R R E T R R U U U U U U U P U T R R R R R R T U U U E E E E ",
"U U U U U T R E E R T U U U U U T R R R R R R R E R R R ..T E T T R R R R R R R T U U U U U U T R R R R R R R R R T U U U T R T ",
"U U U U I R r.r.r.r.R U U U P U R R R R R R R R R R R R T E T T E R R R R R E R R U I I U U T R R R R R R R R R R R T U U U U U "
};
