/* XPM */
static char *out[] = {
/* columns rows colors chars-per-pixel */
"64 64 231 2 ",
"   c #16190D",
".  c #271508",
"X  c #2D120A",
"o  c #381908",
"O  c #381F12",
"+  c #122E19",
"@  c #05321E",
"#  c #302E11",
"$  c #3A2419",
"%  c #063A25",
"&  c #163523",
"*  c #382B24",
"=  c #3A332E",
"-  c #500A09",
";  c #471A08",
":  c #561A04",
">  c #690D09",
",  c #790703",
"<  c #47280D",
"1  c #552908",
"2  c #4D300B",
"3  c #563B07",
"4  c #462714",
"5  c #4B3518",
"6  c #583718",
"7  c #682504",
"8  c #772902",
"9  c #663A0A",
"0  c #6F3310",
"q  c #653C1B",
"w  c #773715",
"e  c #4F322B",
"r  c #493628",
"t  c #573925",
"y  c #433B39",
"u  c #67352C",
"i  c #05452B",
"p  c #0E472F",
"a  c #015535",
"s  c #005D3B",
"d  c #2D493C",
"f  c #00623D",
"g  c #5B4406",
"h  c #584715",
"j  c #684A06",
"k  c #774C05",
"l  c #6A5306",
"z  c #785804",
"x  c #674818",
"c  c #755314",
"v  c #786704",
"b  c #756015",
"n  c #58482A",
"m  c #594639",
"M  c #684423",
"N  c #734A24",
"B  c #764B26",
"V  c #655629",
"C  c #7B5528",
"Z  c #695835",
"A  c #7C6628",
"S  c #716139",
"D  c #463F40",
"F  c #284B56",
"G  c #4A4645",
"H  c #574D47",
"J  c #4C564B",
"K  c #595353",
"L  c #685947",
"P  c #6F514D",
"I  c #655958",
"U  c #5C6353",
"Y  c #756A48",
"T  c #6A645D",
"R  c #72655B",
"E  c #645F60",
"W  c #566564",
"Q  c #6B6767",
"!  c #736D6B",
"~  c #68766F",
"^  c #7B7468",
"/  c #7A7777",
"(  c #8D0908",
")  c #A60104",
"_  c #882B01",
"`  c #983601",
"'  c #8A3810",
"]  c #A53401",
"[  c #B63C00",
"{  c #853234",
"}  c #C90006",
"|  c #875701",
" . c #9A481B",
".. c #8B5515",
"X. c #BA4204",
"o. c #A24D1E",
"O. c #B44B16",
"+. c #846402",
"@. c #8B6906",
"#. c #926C02",
"$. c #986D05",
"%. c #8A7703",
"&. c #977505",
"*. c #9C7403",
"=. c #886715",
"-. c #957318",
";. c #A37805",
":. c #AC7D03",
">. c #B47F03",
",. c #83542A",
"<. c #865729",
"1. c #8C5B2D",
"2. c #925F2F",
"3. c #935732",
"4. c #A24C20",
"5. c #836725",
"6. c #92612F",
"7. c #957828",
"8. c #946230",
"9. c #996732",
"0. c #9C6933",
"q. c #A26D35",
"w. c #A56D38",
"e. c #A77137",
"r. c #AC7439",
"t. c #B0773B",
"y. c #B47A3D",
"u. c #B97E3F",
"i. c #C94301",
"p. c #D64700",
"a. c #E34B00",
"s. c #EC4D00",
"d. c #F24F00",
"f. c #EF5100",
"g. c #F25100",
"h. c #87774C",
"j. c #BC7E40",
"k. c #847A66",
"l. c #817B7B",
"z. c #978403",
"x. c #AC8401",
"c. c #B28503",
"v. c #BC8B03",
"b. c #BB8A08",
"n. c #AD9109",
"m. c #B99603",
"M. c #B6A202",
"N. c #9E8339",
"B. c #A88728",
"V. c #BD803F",
"C. c #C38D02",
"Z. c #C18E0B",
"A. c #C59302",
"S. c #CC9501",
"D. c #CA9705",
"F. c #CE9509",
"G. c #D49C02",
"H. c #D99C01",
"J. c #C7AC01",
"K. c #D5A102",
"L. c #DCA301",
"P. c #CDB301",
"I. c #DABB01",
"U. c #E3A601",
"Y. c #E5A901",
"T. c #ECAD00",
"R. c #F2AE00",
"E. c #EDB100",
"W. c #F4B300",
"Q. c #FBB600",
"!. c #F6B800",
"~. c #FEBC00",
"^. c #E5C500",
"/. c #FFC000",
"(. c #F9D500",
"). c #FED900",
"_. c #938451",
"`. c #A68E4A",
"'. c #BE8140",
"]. c #8B8579",
"[. c #958C77",
"{. c #A39878",
"}. c #C28442",
"|. c #CB8B46",
" X c #CF8D48",
".X c #D28F49",
"XX c #D4914A",
"oX c #247099",
"OX c #847F81",
"+X c #4285A7",
"@X c #7CAFCD",
"#X c #8A8786",
"$X c #938D84",
"%X c #999688",
"&X c #9B9796",
"*X c #A28F8F",
"=X c #A49A8D",
"-X c #A49D93",
";X c #A39C9A",
":X c #A5A294",
">X c #ABA598",
",X c #B3AE93",
"<X c #B4AC99",
"1X c #8DA0AB",
"2X c #ACAAAA",
"3X c #B5ADA4",
"4X c #B8B5A5",
"5X c #BAB7B6",
"6X c #C1BDB4",
"7X c #CAC7B5",
"8X c #CEC9B1",
"9X c #D1CDB9",
"0X c #BDC5CA",
"qX c #C9C8C7",
"wX c #DAD7C4",
"eX c #C1D0D9",
"rX c #D9D7D7",
"tX c #E1DDCF",
"yX c #E7E3CD",
"uX c #E9E5D1",
"iX c #EDEBD5",
"pX c #F1EDD7",
"aX c #F5F3DB",
"sX c #F9F6DE",
"dX c #D7DEE3",
"fX c #E7E6E6",
"gX c #F9F7E0",
"hX c #FCFAE2",
"jX c #F1EFF0",
"kX c #F5F3F4",
"lX c #FDFCFC",
/* pixels */
"r.r.r.u.V.'.'.'.'.'.'.u.r.r.r.r.t.j.t.j.r.j.j.r.j.r.j.t.y.y.y.y.y.y.j.y.y.y.y.y.y.r.r.r.r.r.y.y.y.y.y.y.y.y.y.y.y.y.y.r.r.r.r.r.",
"r.r.u.u.'.'.'.'.'.'.'.V.u.r.r.r.r.j.j.r.j.r.j.r.r.j.r.j.y.y.y.y.y.y.y.y.y.y.y.y.t.r.r.r.r.y.y.y.y.y.y.y.y.y.y.y.u.y.y.y.r.r.r.r.",
"r.u.V.V.V.'.V.}.'.V.V.'.V.u.r.r.r.t.r.j.r.t.j.r.N.r.1.r.y.y.y.y.y.y.y.y.y.y.y.y.r.r.r.r.t.y.y.y.y.y.y.j.y.y.y.y.y.y.y.y.y.r.r.r.",
"u.V.'.'.V.}.V.V.}.}.}.'.V.}.u.y.r.j.j.j.'.j.j.j.q.h 5 1.y.y.y.y.y.y.y.y.y.y.w.3.y.t.t.y.q.r.y.j.j.j.y.j.u.y.u.y.y.y.y.y.y.r.r.r.",
"V.'.'.'.'.V.V.}.|. X X XXXXXXXXXXXXXXXXXXXXXXX'.c J.x r.y.y.t.t.t.j.t.j.r.3.; 6 .X.X.X|.5 h j..X.X.XXXXX X|.|.}.V.u.t.u.y.r.r.u.",
"'.'.'.'.'.}.|.XXXXXXXXXXXXXX.X.XXXXXXX.X.X.X.Xc P.P.x y.u.t.q.,.e.w.C 6 1 _ ] B .X.X.X.XA M.x |..X.X.XXX.X.XXXXXXX}.u.t.y.r.t.V.",
"'.'.'.'.}. XXXXX}.y.r.r.e.0.q.0.q.0.q.q.q.q.1.v (.P.x u.t.1.; X 4 : ` i.s.a.: q q.q.q.q.x I.z.C w.q.q.q.r.r.t.}..XXX|.y.r.r.u.V.",
"'.'.'.'.}.XXXXu.q.0.0.9.0.9.0.0.9.9.9.9.9.<.< M.).E.h t.e.9 _ X ] d.d.d.d.p.[ 8 < 5.9.8.x ^.P.6 9.9.9.9.0.9.0.q.y..XXXV.r.r.y.V.",
"}.V.V.}.|.XXV.q.0.9.9.9.9.0.9.9.9.9.9.9.9.6   M.).(.l 2.3._ i.i.d.d.g.g.g.g.f.[ ; 4 8.<.v ).^.3 9.9.9.9.9.9.9.9.0.'.XX}.r.r.y.V.",
"V.V.V.}.XXXXr.9.9.9.0.0.0.0.0.0.0.0.0.0.9.x v M.).(.v ; ; ` d.d.d.d.g.g.g.g.f.X.X ; 8.6 J.).E.5 9.0.0.9.0.9.9.9.0.r.XX|.r.r.r.y.",
"V.V.V.}.XXXXq.9.9.0.e.t.u.V.V.e.e.r.e.e.w.x z.z.(.n.` s.p.8 [ ] 8 1 1 8 ` a.d.s._ 1 q &.(.).J.1 <.e.r.y.r.e.0.9.0.q.XX.Xr.r.r.r.",
"r.V.V.V.XXXXq.9.9.0.u.V.V.V.y.r.r.r.r.r.r.M m.v I.| p.p.g.a.; i s f f f i + 8 8 8 _ 1 I.).(.z o # 6.y.y.y.r.0.9.9.q..XXXy.r.r.r.",
"r.y.V.}.XXXXq.9.9.0.V.V.y.r.r.r.r.r.r.r.r.x M.M.v l . ` s.d.[ p s f f f f s # p.d.d.p.#.).P.j M.l q.r.j.t.r.0.9.9.e..XXXy.r.r.r.",
"r.r.y.V.XXXXq.9.9.9.u.V.r.r.r.r.C 6 C q.r.N V _.L h $   7 p.d.` + a f f i # [ d.d.p.: z ^.@.I.z.C r.r.e.r.r.0.9.9.0..XXXV.r.y.y.",
"y.r.r.V.XX.Xq.9.9.0.y.r.r.r.r.r.1.v n.j q t :X:XH Q J + #X' s.s.6 s f f p i.g.s.[ 7 t V l m.^.h q.r.r.r.r.e.9.9.9.0..XXXV.y.y.y.",
"y.r.r.y.XX.Xq.9.9.0.r.e.r.r.y.u.r.h I.).%.  @ i a & % J eXF 7 i.2 s f f * a.p. .! d U $X].h.l N r.r.r.r.r.r.0.9.9.e..XXXV.y.y.y.",
"y.y.r.y.XX.Xq.9.9.9.e.r.t.t.y.y.y.1.%.J.# a f f f @ i d 0XoXF F + @ a i   r . oXdX~ + + U 6XR 1.r.r.r.r.r.r.9.9.9.q.XXXXj.y.y.y.",
"y.y.y.y.XXXXq.9.9.0.r.r.y.y.y.y.y.w.2 . % s a & # + i a d W 1XJ i @ @ i p +XoX@XdXJ % % a p O 8.r.r.e.r.r.y.0.9.9.q..XXXj.y.j.y.",
"y.y.y.V.XX.Xq.9.9.0.r.t.y.y.y.y.<.e &XqX5XG l L.!.U.l a f a . g &.x.@.# % W / F p % @   @ s % N 0.B 5 # 1.r.0.9.9.q.XXXXj.t.r.j.",
"y.y.y.V.XX.Xq.9.9.0.r.y.y.y.y.1.H fXlXlXrX5.W.~.~.~.E.l l 3 S.~.~.!.~.Q.&.& i s p l D.L.z.# a   l n.P.3 r.y.0.9.9.q..XXXj.t.j.r.",
"y.y.y.u.XX.Xq.9.9.9.r.y.r.j.j.t rXlXlXlX%Xv.Q.~./.~.!.Q.L.H.;.:.Q.~.~.~.~.:.+.l @.!.~.~.~.x.p + n.P.l 8.j.r.0.9.9.q.XXXXj.t.j.r.",
"y.y.y.u.XX.Xq.9.9.0.e.y.j.j.M ;XqXdXlXlXk.G.~.~.~.~.~.~.~.G.9 9 v.Q.~.C.3 &.U.!.L.!.~.~.~.T.h &X5X^ 6 y.j.r.0.9.9.q. XXXj.r.r.j.",
"y.y.y.u..X.Xq.9.9.0.r.r.e.w.$ K H l.rXlX].D.~.~.~.E.K.~.~.!.D.#.#.Q.E.3 9 +.!.~.~.~.~.~.~.W.h.lXlXkXR 8.y.r.0.9.9.q. XXX'.t.j.r.",
"y.e.B 6 j l 6 C <.N L u C 6 . G I T E 6X>X;.~.~.Q.z l ~.~.~.~.~.E.~.E.K.~.~.~.~.W.T.~.~.~.U.h.lXlXlX5XM y.r.0.9.9.q. X Xj.j.r.j.",
"0.H &XF.~.~.S.z O G #XQ n v.S.3 G #X/ K K x R.Q.U.; n U.Q.~.~.~.~.~.~.~.~.~.~.~.| 3 E.~.~.C.;XkXkXlXfXe t.t.q.8.9.q..X.Xy.y.y.y.",
"q * * 3 Y.;.:.W.z G #X2X$Xb.~.v.r G OX* $.j ;.Q.S.: ].b Q.Q.~.~.~.~.~.~.~.~.~.*.n > S.~.W.5.&XI 5XlXjXH r.r.q.q.0.q.|.|.u.y.y.y.",
"y.w.1 H.C.-.Q.~.K.r Q ! Q A !.W.x G Q x W.:.* A.U.1 E G V c.T.T.:.k C.W.R.S.j H *X: L.Q.*.* K ! D ;XjXH r.t.t.t.j.r.'.`.y.y.y.y.",
"y.q S.Q.h.5Xb.Q.Q.x G OX#XL U.~.-.= I ;.~.v.I m G.| , R qXu > , ) } ) , e #Xu ( e ;.F.z * / / / / K ;Xu r.y.y.y.t.j.r.j.y.y.y.y.",
"8.m >.H.S h.v A.T.@.D &X&X/ K.!.C.r $ L.!.7.&XQ ;.C., H 3X( ( ( ) ) ( ( { 3Xe , | :.P ! = #X/ ~ G 5 M $ e.y.y.y.j.r.j.r.j.y.y.y.",
"B 2X* $.G.R.E.;.S.;.= ;X2X/ D.~.G.* $ T.~.B.2XI =.U.M / y > i.a.[ ] p.] t l.! t L.b Q G c K K m c U.E.*.2 B r.y.t.j.r.j.y.y.y.y.",
"t $ X S.R.E.~.~.~.*.= ! ~ Q b.D.@.* 3 !.Q.B.$XI Z U.7.P - r [ f.d.d.i.' 8 - H C.S.m &X5X+.r = x W.~.~.A.H K y B r.r.j.r.y.j.y.y.",
"1.2.q 7.g 2 x.H.A.3 D Q ! . m 2XqX#Xc !.A.,XgX4Xr b.:.> P &XX.g.f.f.O.;X0 , w R...I ;Xh.G.h 6 Y.!.~.H.L OX#X/ G 4 q 3 r B e.y.y.",
"j.r.C OXr 1.6 5 6 q 6 q ,.<.L kXlX6X;.Q.`.>XyXsX<X=.F.1 6X%Xi.g.g.g.3.uXT - S.C.Z I Z L.Q.z :.Q.~.R.A ! #X/ G $ *.L.L.%X$Xr e.y.",
"r.j.j.5 q r.r.e.r.r.r.r.r.e.m jXjXh.R.F.8XpX=XtXsX[.G.Y kX$XX.p.p.a.3.kX;Xj U.3 U 9X^ v.Q.#.A.~.~.b.I 2X/ H r C.~.~.x.z h 4 r.y.",
"j.r.j.r.j.w.r.r.r.r.r.r.r.r.t rX7Xb.Q.`.pXsXaX>X<X>X*.A R b +.#.%.z x ].$XZ.$.l.8X%X6XB.R.z c.~.Q.5.#X! K = c.Q.~.!.%.W.~.*.6 t.",
"e.j.r.r.r.e.r.r.r.r.r.y.y.y.M 5X%XH.T.k.pXsXhXhX9XL A.E.!././.~.~.~./.E.C.Y.5.=X4XaXaX_.T.#.5 @.v.L OX$XK x R.~.~.W.C.Q.~.F.! ,.",
"r.r.r.r.r.r.r.r.r.r.j.j.j.t.2./ h.Q.Z.6X<XpXhXhXhXk.G.!././.~./.~.~./.~.~.W.5.uXsXhXhX,XH.G.k.qX$XG #XQ y @.~.~./.~.~.W.j 5 7Xm ",
"e.r.r.r.t.t.r.e.e.r.j.r.y.y.r.e @.Q.B.uXyX-XuXhXhX4X=.!././.~.v.A.~.~.~.~.C.k.hXhXhXsX%XA.T.S kXfXr X G * $.Q.~.~.~./.~.v.; e $ ",
"r.r.r.j. X Xq.9.9.q.r.j.y.y.y.x ;.Q.N.aXsXpX-X6XsXgX:Xb &.-.A %X%XA c.S.;.L wXsXhXuX:X[.b.Q.b fX5Xt t.1.6 k Q.~.~././.~.W.j 2.r.",
"r.r.e.e.XX.Xq.9.9.9.r.r.y.t.j.N c.Q.5.9XhXhXsX7X=X7XsXpX9X9XpXhXsXyX3X%X4XpXhXuX<X:XtX9Xb.~.=.rXl.,.j.j.t.6 c.Q.~.~.L.z 7.^ B r.",
"r.r.r.j. X.X0.9.9.0.y.u.y.y.y.N c.Q.`.3XuXhXhXhXpX6X$X-XwXgXhXhXhXsXhXsXpX4X%X&X9XhXhX8Xb.K.j N 4 x u.V.V.9.o 3 @.Y.L.: e &XN r.",
"r.r.r.r..X.Xq.9.9.0.r.y.y.y.y.x x.Q.`.iX3XpXhXhXhXhXhXiX2X].#X$X%X%X$X$X%X9XgXgXhXhXsX4Xc.#.U.!.v.k B V.V.V.9.,.4 l z 2.9.$ C r.",
"r.r.e.r.XXXXq.9.9.0.y.y.y.t.u.B #.Q.`.aXyX3XiXhXhXhXhXhXgXhXhXhXhXhXhXhXhXhXhXhXhXhXsX{.S.T.U.@.z $.< V.V.V.0.0.B Q L |.j.w.r.j.",
"r.r.r.j.XX.Xq.9.9.0.r.y.t.u.y.q 3 R.B.yXsXyX<XwXhXhXhXhXhXhXhXhXhXhXhXhXhXhXhXhXhXaX4XS R.U.:.l v.k 2 u.V.V.0.9.1.5 u..Xr.r.r.0.",
"r.r.r.t.XX.Xq.9.9.0.y.y.y.y.B 9 k C.Z.9XhXsXaX4X-XuXhXhXhXhXhXhXhXhXhXhXhXhXhXiX<X:X7X-.~.!.;.l +.l 1 6.B u B 2.9.q.XXXXr.r.r.r.",
"r.r.r.t.XX.Xq.9.9.0.r.u.u.0.1 Y.S.k U.S uXhXhXhXiX;X%X4XyXpXaXsXgXhXaXiXwX3X%X%XyXhX,XS.~.!.!.U.;.g O / 6X5Xy 4 M 2..XXXt.r.r.r.",
"r.r.r.t.XXXXq.9.9.0.t.y.t.6 >.Q.Q.#.*.-.$XyXhXhXhXhXhXwX3X:X-X&X%X&X&X:X4XwXhXhXgXiX_.W.~.U.@.+.A.!.K.=X2XOX2X6X;X= w.XXr.r.r.r.",
"r.r.r.t.XX Xq.9.9.9.t.u.8.9 R.Q.Q.R.z $.{.=XwXhXhXhXhXhXhXhXhXhXhXhXhXhXhXhXhXhXgX,Xm.Q.T.*.K.~./././.A.b ;XrX#X= n }.XXt.r.r.r.",
"r.r.r.r..X.Xq.9.9.0.t.u.N l +.G.Q.~.T.j C 9X>X<XaXhXhXhXhXhXhXhXhXhXhXhXhXhXsXsXwX7.W.~.~.!.~.~.~././.!.Q.;.! rX5XI 9..Xy.r.r.r.",
"r.r.r.t.XX.Xq.9.9.0.t.y.x :.A.z G.T.~.W.z R iX9X$X6XiXhXhXsXhXhXhXhXhXhXsXsX9X%XM L.Q.~.~.~.~.Y.;.k 9 9 k S.1.&X! H 2.XXy.r.r.r.",
"y.r.r.t.XX.Xq.9.9.0.r.y.x 3 @.;.S.Y.~.~.!.&.Y 7XsX7X-X>X6X9XwXyXyXwX9X4X>X:X6X{.A.Q.~.~.~.L.z q  .o.4. .o.| k x 1.0.XXXX'.'.'.'.",
"u.y.y.N..X.Xq.9.9.0.e.t.,.3 #.k +.v.Y.~./.~.K.=.k.9XhXaXwX7X5X<X3X4X7X9XiXsX=Xb.S.H.~.!.;.9  .4. .4.o.4. .2 M 8.9.0.XXXX'.'.'.'.",
"'.V.y.y.XXXXq.9.9.0.e.r.q.< g @.G.x.K.~./.~./.~.L.@.Z [.7XaXgXhXsXsXsXsXuXk.3 o 3 R.R.k ' 4.4.4.4.o.4.w o B 0.9.0.0.XXXX'.'.'.'.",
"'.'.V.u.XX.Xe.9.9.9.q.e.r.,.o l x.!.~.~.~./././.~.~.!.;.X O r m H H m r O 5 B w @.Q.@.' 4.4.4.4. .< O 6 w.r.0.9.9.e..XXX'.'.'.'.",
"'.'.'.}. X.Xt.0.9.9.9.0.6.1 c.C.@.+.%.v.!./././.~./.~.H.6 r.r.w.q.q.q.e.r.r.0.x z G.w 4.4.4. .w ; M 8.0.0.0.9.9.0.t.XX.X'.'.'.'.",
"'.'.'.'.|.XX}.q.9.9.0.0.6 >.R.Q.~.~.!.~.~./././.~.~.!.z q y.y.y.u.y.y.r.r.r.0.1.< j 0  .w 1 o 5 1.8.9.9.9.9.9.9.q.'.XX|.'.'.'.'.",
"V.V.V.V.}.XX.Xu.q.9.0.,.t b @.W.Y.c.W./././.~.!.E.x.3 $ 0.j.y.y.t.u.y.y.r.e.0.0.6.x 5 4 6 N 8.9.9.9.9.9.9.9.0.0.V..XXX}.'.'.'.'.",
"}.V.V.V.u.}..X.XV.e.w.M #X5XqX5.Y h.F.Y.D.*.z 3 O 5 C r.j.y.y.t.u.t.y.y.y.e.q.e.q.q.0.q.0.q.e.0.q.q.q.q.q.0.r.'..XXX|.'.'.'.'.'.",
"V.V.V.y.e.t.}..XXX.X.Xn OXjX&XK fX0X5 6 M 1.q.j.|..Xy.y.r.j.y.j.t.y.y.y.t.u. XXX.X.X.X.XXXXXXX.X.X.XXX.XXX.X.XXXXX|.'.'.'.'.'.'.",
"V.V.V.r.r.r.y.V.|..XXXB OXR O ;X5Xn q. XXXXXXXXXXX.Xj.y.y.y.y.t.y.y.u.t.y.u. XXXXXXXXX.XXXXXXXXXXXXXXXXXXXXX.X|.'.r.y.'.'.'.'.'.",
"V.y.r.r.r.r.e.r.t.t.y.8.4 3.q G t q.u.u.u.V.u.V.V.V.y.y.y.y.y.y.y.y.y.u.y.y.u.t.y.t.t.t.y.r.y.y.y.y.V.y.'.j.y.t.r.r.r.y.V.'.'.'.",
"y.r.r.r.r.r.r.r.r.r.r.r.w.r.q.8.r.y.y.y.t.y.t.y.r.y.y.y.y.y.y.y.y.y.y.y.y.y.y.y.r.r.r.r.r.r.r.r.r.y.y.y.y.y.y.t.y.r.r.r.y.V.V.V.",
"r.e.r.r.e.t.y.u.y.y.t.r.r.r.r.r.t.y.y.y.y.y.y.y.y.y.y.y.y.y.y.y.y.y.y.y.y.y.y.y.t.r.r.r.r.r.r.r.y.y.y.y.y.y.V.y.y.r.r.r.r.r.r.r.",
"r.r.r.r.t.u.V.'.'.j.y.r.r.r.r.r.t.t.j.y.y.y.u.y.y.y.y.y.j.y.y.y.y.y.y.y.y.y.y.y.y.r.r.r.r.r.r.y.y.y.y.y.y.y.y.y.y.y.t.r.r.r.r.r."
};
