/* XPM */
static char *_3ef9eda8127463f857a8eb9a96dff77FlUQhWSwVerLo7jv[] = {
/* columns rows colors chars-per-pixel */
"64 64 44 1 ",
"  c None",
". c #226B96",
"X c #2678A8",
"o c #2A85BA",
"O c #2A86BB",
"+ c #2B87BC",
"@ c #2C88BD",
"# c #2E89BE",
"$ c #2E8ABF",
"% c #2C8DC6",
"& c #318DC3",
"* c #328FC5",
"= c #3794CB",
"- c #3795CC",
"; c #3795CD",
": c #3796CC",
"> c #3796CD",
", c #3893C8",
"< c #3896CC",
"1 c #3896CD",
"2 c #2F95D0",
"3 c #3196D0",
"4 c #3096D1",
"5 c #3298D3",
"6 c #3399D5",
"7 c #349AD6",
"8 c #3899D1",
"9 c #369DD9",
"0 c #3AA2DE",
"q c #3BA3DF",
"w c #3CA4E1",
"e c #3EA8E4",
"r c #3FA8E4",
"t c #3FA8E5",
"y c #409BD0",
"u c #409DD3",
"i c #449FD4",
"p c #45A3DA",
"a c #46A4DB",
"s c #41A9E5",
"d c #47ABE5",
"f c #4EACE3",
"g c #48ACE6",
"h c #52B0E7",
/* pixels */
"     tttttttttttttttttttttttttttttttttttttttttttttttttttttt     ",
"   ttttttttttttttttttttttttttttttttttttttttttttttttttttttttttt  ",
"  ttq964222222222222222222222222222222222222222222222222469wtt  ",
" tt9222222222222222222222222222222222222222222222222222222227tt ",
"ttq2222222222222222222222222222222222222222222222222222222222qt ",
"tt622222222222222222222222222222222222222222222222222222222227tt",
"tt52222222XXXXXXXXXXXXXXXXXXXXXXXXXXXXXXXXXXXXXXXXXXXX22222225tt",
"tt22222222XXXXXXXXXXXXXXXXXXXXXXXXXXXXXXXXXXXXXXXXXXXX22222222tt",
"tt22222222XXXXXXXXXXXXXXXXXXXXXXXXXXXXXXXXXXXXXXXXXXXX22222222tt",
"tt22222222XXXXX%%%%XXXXXXXXXXXXXXXXXXXXXXXXXX%%%%XXXXX22222222tt",
"tt22222222XXXXX2222XXXXXXXXXXXXXXXXXXXXXXXXXX2222XXXXX22222222tt",
"tt22222222XXXXX%%%%XXXXXXXXXXXXXXXXXXXXXXXXXX%%%%XXXXX22222222tt",
"tt22222222XXXXXXXXXXXXXXXXXXXXXXXXXXXXXXXXXXXXXXXXXXXX22222222tt",
"tt22222222XXXXXXXXXXXXXXXXXXXXXXXXXXXXXXXXXXXXXXXXXXXX22222222tt",
"tt22222222XXXXXXXXXXXXXXXXXXXXXXXXXXXXXXXXXXXXXXXXXXXX22222222tt",
"tt22222222XXXXXXXXXXXXXXXXXXXXXXXXXXXXXXXXXXXXXXXXXXXX22222222tt",
"tt22222222XXXXXXXXXXXXXXXXXXXXXXXXXXXXXXXXXXXXXXXXXXXX22222222tt",
"tt22222222XXXXXXXXXXXXXXXXXXXXXXXXXXXXXXXXXXXXXXXXXXXX22222222tt",
"tt22222222XXXXXXXXXXXXXXXXXXXXXXXXXXXXXXXXXXXXXXXXXXXX22222222tt",
"tt22222222XXXXXXXXXXXXXXXXXXXXXXXXXXXXXXXXXXXXXXXXXXXX22222222tt",
"tt22222222XXXXXXXXXXXXXXXXXXXXXXXXXXXXXXXXXXXXXXXXXXXX22222222tt",
"tt22222222XXXXXXXXXXXXXXXXXXXXXXXXXXXXXXXXXXXXXXXXXXXX22222222tt",
"tt22222222XXXXXXXXXXXXXXXXXXXXXXXXXXXXXXXXXXXXXXXXXXXX22222222tt",
"tt22222222XXXXXXXXXXXXXXXXXXXXXXXXXXXXXXXXXXXXXXXXXXXX22222222tt",
"tt22222222XXXXXXXXXXXXXXXXXXXXXXXXXXXXXXXXXXXXXXXXXXXX22222222tt",
"tt22222222XXXXXXXXXXXXXXXXXXXXXXXXXXXXXXXXXXXXXXXXXXXX22222222tt",
"tt22222222XXXXXXXXXXXXXXXXXXXXXXXXXXXXXXXXXXXXXXXXXXXX22222222tt",
"tt22222222XXXXXXXXXXXXXXXXXXXXXXXXXXXXXXXXXXXXXXXXXXXX22222222tt",
"tt22222222XXXXX%%%%XXXXXXXXXXXXXXXXXXXXXXXXXX%%%%XXXXX22222222tt",
"tt22222222XXXXX2222XXXXXXXXXXXXXXXXXXXXXXXXXX2222XXXXX22222222tt",
"tt22222222XXXXX%%%%XXXXXXXXXXXXXXXXXXXXXXXXXX%%%%XXXXX22222222tt",
"tt22222222XXXXXXXXXXXXXXXXXXXXXXXXXXXXXXXXXXXXXXXXXXXX22222222tt",
"tt22222222XXXXXXXXXXXXXXXXXXXXXXXXXXXXXXXXXXXXXXXXXXXX22222222tt",
"tt22222222XXXXXXXXXXXXXXXXXXXXXXXXXXXXXXXXXXXXXXXXXXXX22222222tt",
"st222222222222222222222222222222222222222222222222222222222222ts",
"gt222222222222222222222222222222222222222222222222222222222222tg",
"fd222222222222222222222222222222222222222222222222222222222222df",
"phu8422222222222222222222222222222222222222222222222222222248uhp",
"1aiiiiiiiiiiiiiiiiiiiiiiiiiiiiiiiiiiiiiiiiiiiiiiiiiiiiiiiiiiiia1",
"11#,yiiiiiiiiiiiiiiiiiiiiiiiiiiiiiiiiiiiiiiiiiiiiiiiiiiiiiiy,#11",
"11oooooooooooooooooooooooooooooooooooooooooooooooooooooooooooo11",
"11oooooooooooooooooooooooooooooooooooooooooooooooooooooooooooo11",
"11oooooooooooooooooooooooooooooooooooooooooooooooooooooooooooo11",
"11oooooooo............................................oooooooo11",
"11oooooooo............................................oooooooo11",
"11oooooooo............................................oooooooo11",
"11oooooooo............................................oooooooo11",
"11oooooooo............................................oooooooo11",
"11oooooooo............................................oooooooo11",
"11oooooooo............................................oooooooo11",
"11oooooooo............................................oooooooo11",
"11oooooooo............................................oooooooo11",
"11oooooooo............................................oooooooo11",
"11oooooooo............................................oooooooo11",
"11oooooooo............................................oooooooo11",
"11oooooooo............................................oooooooo11",
"11oooooooo............................................oooooooo11",
";1+ooooooo............................................oooooooo11",
"11#oooooooooooooooooooooooooooooooooooooooooooooooooooooooooo#1;",
";1*oooooooooooooooooooooooooooooooooooooooooooooooooooooooooo*1;",
" 11#oooooooooooooooooooooooooooooooooooooooooooooooooooooooo#11 ",
"  1=&#oooooooooooooooooooooooooooooooooooooooooooooooooooo#&=1  ",
"  ;1111111111111111111111111111111111111111111111111111111111;  ",
"    ;;1111111111111111111111111111111111111111111111111111;;    "
};
