/* XPM */
static char *_5617a1bf7014e16c8363b3dfbf821540nV9j0ZnlkewF3ip[] = {
/* columns rows colors chars-per-pixel */
"64 64 60 1 ",
"  c #986735",
". c #9C6936",
"X c #A06C38",
"o c #A26D38",
"O c #A46F39",
"+ c #A6703A",
"@ c #A8723B",
"# c #A9723B",
"$ c #AA733B",
"% c #AA733C",
"& c #AB733C",
"* c #AB743C",
"= c #AC743C",
"- c #AC753C",
"; c #AD753C",
": c #AD753D",
"> c #AE763D",
", c #AF763D",
"< c #AF773D",
"1 c #B0773D",
"2 c #B0773E",
"3 c #B1773E",
"4 c #B1783E",
"5 c #B2783E",
"6 c #B3793E",
"7 c #B3793F",
"8 c #B47A3F",
"9 c #B57B3F",
"0 c #B57B40",
"q c #B67B40",
"w c #B77B40",
"e c #B87C40",
"r c #B97D40",
"t c #BA7E41",
"y c #BB7F41",
"u c #BD8042",
"i c #BC8043",
"p c #BE8042",
"a c #C08243",
"s c #C08344",
"d c #C28445",
"f c #C48545",
"g c #C48546",
"h c #C58646",
"j c #C78747",
"k c #C88847",
"l c #C98847",
"z c #CA8948",
"x c #CA8A48",
"c c #CB8A48",
"v c #CC8A48",
"b c #CC8B48",
"n c #CC8B49",
"m c #CE8C49",
"M c #CF8D4A",
"N c #D08D4A",
"B c #D28F4B",
"V c #D38F4B",
"C c #D5914C",
"Z c #D9944E",
/* pixels */
"%%%7uuuuuuur%%%*7777777777777772777777777=%%%=7777777777777=%%%%",
"%=ruuuuuuuuur%%%2777777777777777777777777@%%=777777777777777=%%%",
"%ruuuuuuuuuuur%%=77777777777777777777277=%%%27777777777777777*%%",
"ruuuuuuuuuuuuu9%%27777777777777777777777*%%=77777777727777777=%%",
"uuuuuuuakNNNZZZZZZZZZZZZZZ777777777777ZZZZZZZZZZZZZZmmcd07777=%r",
"uuuuuucZZZZZZZZZZZZZZZZZZZ777722777777ZZZZZZZZZZZZZZZZZZZf777=2u",
"uuuuubZZk2@@              77772777777=              @+=jZZf7=%ru",
"uuuufZZ2                  7777777777=%                  2ZZr%%9u",
"uuuumZs                   777777777=%%                   sZf%%=u",
"uuuuCZO                   77777777=%%0                   OZN%%%0",
"ruuuZZ    =7uuu2%%%%%%%==77777777=%%9uuuuuuuur%%=777@+    ZZ%%%%",
"=uuuZZ    uuuu2%%%%%%%%%%2777777=%%7uuuuuuuuuu9%%=7777    ZZ%%%%",
"%2uuZZ    uur=%%%%%%%%%%%%=277=%%%=uuuuuuuuuuuu2%%=777    ZZ===%",
"%%7uZZ    ur=%%%%%%%%%%%%%%%%%%%%%=uuuuuuuuuuuu7%%%%*%    ZZ7772",
"2%%9ZZ    r=%%%=77=%%%%%%%%%%%%%%%%ruuuuuuuuuuu=%%%%%%    ZZ7777",
"72%%ZZ    %%%=77777=%%%%%%%%%%%%%%%=uuuuuuuuuu7%%%%%%%    ZZ7777",
"772=ZZ    %%=7777777=%%%%%%%%%%%%%%%2uuuuuuuu7%%%%%%%=    ZZ7777",
"7772ZZ    %=777777777=%%%%%%%%%%%%%%%2uuuuuu9%%%%%%%=7    ZZ7777",
"7777ZZ    =77777777772%%%%%%%%%===*%%%2uuuu9%%%%%%%=77    ZZ7777",
"7777ZZ    =77777777777=%%%%%%277777=%%%=00=%%%%%%%=777    ZZ2777",
"7777ZZ    =77777777777=%%%%*27777777=%%%%%%%%%%%%=7777    ZZ7777",
"7777ZZ    %77777777777=%%%=7777777777=%%%%%%%%%%=77777    ZZ7722",
"7777ZZ    %=777777772=%%%=777777777777=*%%%%%%%*777777    ZZ7777",
"7777ZZ    %%=7777777=@%%=77777777777777=*%%%%%%=777777    ZZ7777",
"7777ZZ    %%%277777=%%%=77777777777777772%%%%%%7777777    ZZ7777",
"7777ZZ    %%%%277=*%%%=7777777777777777772%%%%*7777777    ZZ7777",
"772777777=%%%%%*%%%%%=77777777777727777777=%%%%77777777777777777",
"777777777=%%%%%%%%%%=7777777777772272777777=%%%27777777777777777",
"77777777=%%%%%%%%%%=277772777777777777777777*%%=7777777777777777",
"7777777=%%%%%%%%%%%7777772277772777777777777=%%%=777777777777777",
"7777777*%%%%%%%%%%=77777777777777772777777777*%%%=77772772777777",
"777777*%%%%%%%%%%%=77777777777777777777777777=%%%%=7777727777777",
"77777=%%%%%%%%%%%%%77777777777722777777777777=%%%%%2777777777777",
"7777=%%%%%%%%%%%%%%=7777777777777777777777777*%%%%%%277777777777",
"777-%%%%%%%%*%%%%%%*777777777777777777777277=%%%%%%%%=7777777777",
"77*@%%%%%%=777==%%%%=77777777777777722777277*%%%%%%%%%=777777777",
"=*%%%%%%%=7777772*%%%=777777772772777777777=%%%%%%%%%%%=77777777",
"%%%%%%%%=777777777=%%%27777277277777227777=%%%%=0rr7%%%%=777777=",
"%%%%ZZ    777777777=%%*277777777777777777=%%%%2ruuuur%    ZZ7==%",
"%%%%ZZ    7777777777=%%*7727777777777777=%%%%2uuuuuuur    ZZ%%%%",
"%%%%ZZ    77777777777-%%*77777777777777=%%%%2uuuuuuuuu    ZZ%%%%",
"%%%%ZZ    777777777777*%%*777777777772=%%%%7uuuuuuuuuu    ZZ%%%%",
"%%%%ZZ    777777777727=%%%*7777777772%%%%%2uuuuuuuuuuu    ZZ%%%%",
"%%%%ZZ    777777777777=%%%%*=777777=%%%%%=uuuuuuuuuuuu    ZZ%%%%",
"%%%%ZZ    777777777777=%%%%%%=777=%%%%%%%ruuuuuuuuuuuu    ZZ%%%%",
"%%%%ZZ    777777777772%%%%%%%%%%%%%%%%%%2uuuuuuuuuuuuu    ZZ%%%%",
"%%%%ZZ    77777777777*%%%%%%%%%%%%%%%%%%7uuuuuuuuuuuuu    ZZ%%%%",
"%%%%ZZ    7777727777=%%%%%%%%%%%%%%%%%%%=uuuuuuuuuuuuu    ZZ%%%%",
"%%%%ZZ    777777777=%%%%%%%%%%%%%%%%%%%%%ruuuuuuuuuuuu    ZZ%%%%",
"%%%%ZZ    77777777=%%%%%%%%%%%%%%%%%%%%%%%ruuuuuuuuuuu    ZZ%==%",
"2%%%ZZ    2777777=%%%%%%%%%%%%%%%%%%%%%%%%%ruuuuuuuuuu    ZZ9uuu",
"u9%%ZZ    %=7777=%%%%%%%%%=====%%%%%%%%%%%%=ruuuuuuuuu    ZZuuuu",
"uu9%ZZ    %%====%%%%%%%%%=777777*%%%%%%%%%%%=ruuuuuuuu    ZZuuuu",
"uuu9ZZ.   X%%%%%%%%%%%%%=77777777=%%%%%%%%%%%=ruuuuuu@   .ZZuuuu",
"uuuuNZ=                   77772777=%%%                   =ZNuuuu",
"uuuubZf                   277727777=%%                   fZbuuuu",
"uuuuuZZ2                  7777777777=%                  2ZZauuuu",
"uuuu7fZZuX                77777777777=                XuZZbuuuuu",
"uuu9%%fZZZZZZZZZZZZZZZZZZZ777777777777ZZZZZZZZZZZZZZZZZZZbuuuuuu",
"uu9%%%%0cZZZZZZZZZZZZZZZZZ777772777777ZZZZZZZZZZZZZZZZZc0%9uuuuu",
"u7%%%%%%%%%%%%%%%=777777777777727777727=%%%%%%%%%=77777=%%%9uuuu",
"2%%%%%%%%%%%%%%%=77777777777777777777777=%%%%%%%=77777772%%%2uuu",
"%%%%%=9rr7=%%%%%2777777777777777777777777%%%%%%=7777777772%%%%=%",
"%%%%=ruuuur%%%%*7777777777777777777777777=%%%%=777777777772%%%%%"
};
