/* XPM */
static char *out[] = {
/* columns rows colors chars-per-pixel */
"64 64 194 2 ",
"   c #313030",
".  c #3B3330",
"X  c #443231",
"o  c #443932",
"O  c #493A32",
"+  c #513F33",
"@  c #6D3931",
"#  c #783A32",
"$  c #544133",
"%  c #5B4434",
"&  c #5E5C3D",
"*  c #634936",
"=  c #664A36",
"-  c #6A4C36",
";  c #6C4E39",
":  c #7A4A35",
">  c #6D5137",
",  c #645239",
"<  c #6E513A",
"1  c #615A3D",
"2  c #6E5A3B",
"3  c #745236",
"4  c #7B5636",
"5  c #7F5937",
"6  c #72533C",
"7  c #7C5738",
"8  c #7F5938",
"9  c #574D44",
"0  c #765841",
"q  c #7A5C44",
"w  c #5B6541",
"e  c #536A43",
"r  c #4A7849",
"t  c #547649",
"y  c #7F6148",
"u  c #873B33",
"i  c #BC3F32",
"p  c #854735",
"a  c #855C37",
"s  c #895E37",
"d  c #845C38",
"f  c #895F39",
"g  c #BB4232",
"h  c #8D6035",
"j  c #8D6139",
"k  c #956533",
"l  c #996732",
"z  c #9C6933",
"x  c #936539",
"c  c #9B6A3A",
"v  c #A16D35",
"b  c #A16E3A",
"n  c #A77137",
"m  c #A67138",
"M  c #AC7439",
"N  c #B0773B",
"B  c #B47A3D",
"V  c #B97E3F",
"C  c #C74334",
"Z  c #CE4132",
"A  c #D24233",
"S  c #DD4636",
"D  c #D54838",
"F  c #DB543D",
"G  c #E24837",
"H  c #E54B39",
"J  c #E84B39",
"K  c #E4513D",
"L  c #A25D4D",
"P  c #84674D",
"I  c #8B6E52",
"U  c #8E7155",
"Y  c #907357",
"T  c #937559",
"R  c #987A5D",
"E  c #B27D48",
"W  c #E95A44",
"Q  c #C66646",
"!  c #EC654F",
"~  c #EC6A53",
"^  c #EE7A5F",
"/  c #3F884F",
"(  c #3C8D51",
")  c #379856",
"_  c #319D58",
"`  c #2DA35B",
"'  c #27AD5F",
"]  c #29AA5E",
"[  c #39A45F",
"{  c #25AF60",
"}  c #3BAA62",
"|  c #23B362",
" . c #2AB566",
".. c #29B867",
"X. c #36B467",
"o. c #42844E",
"O. c #4F804E",
"+. c #528753",
"@. c #449759",
"#. c #74885C",
"$. c #7B9659",
"%. c #639860",
"&. c #4DAF69",
"*. c #5BA963",
"=. c #4BB869",
"-. c #54B669",
";. c #46BE7A",
":. c #27C26B",
">. c #2CC56E",
",. c #29C96F",
"<. c #35C26D",
"1. c #2ACD72",
"2. c #3AC775",
"3. c #34CC74",
"4. c #3ACE76",
"5. c #43CE7A",
"6. c #54CA79",
"7. c #4BD07C",
"8. c #55D07E",
"9. c #BC803F",
"0. c #918753",
"q. c #81995D",
"w. c #BE8140",
"e. c #B18C5E",
"r. c #9F8163",
"t. c #A48667",
"y. c #AA8D6D",
"u. c #AE906F",
"i. c #B0936B",
"p. c #B39573",
"a. c #B59976",
"s. c #B79C7B",
"d. c #95B279",
"f. c #BCA17D",
"g. c #C28442",
"h. c #CB8B46",
"j. c #CE8C48",
"k. c #D28F49",
"l. c #D4914A",
"z. c #D28F6D",
"x. c #EC8165",
"c. c #F08568",
"v. c #F29575",
"b. c #4ACA82",
"n. c #54CB88",
"m. c #5DD281",
"M. c #5FD091",
"N. c #68CD8B",
"B. c #66D295",
"V. c #C6AB85",
"C. c #C8AB85",
"Z. c #CFB28B",
"A. c #D2B58D",
"S. c #D6B790",
"D. c #D6BC92",
"F. c #D9BE94",
"G. c #F5A985",
"H. c #F9BC95",
"J. c #9EC788",
"K. c #8DD48F",
"L. c #99D793",
"P. c #A9D898",
"I. c #BADA9D",
"U. c #85D4A7",
"Y. c #96DAB3",
"T. c #A4DFBD",
"R. c #CACD97",
"E. c #DFC199",
"W. c #E2C49B",
"Q. c #EDC299",
"!. c #E6C99E",
"~. c #FAC89E",
"^. c #C7DCA2",
"/. c #D8DAA5",
"(. c #E9CCA1",
"). c #FCCDA3",
"_. c #EED0A5",
"`. c #E7DCA9",
"'. c #F4D3A6",
"]. c #F4D6AA",
"[. c #FBD5A9",
"{. c #F6DAAC",
"}. c #FBDBAE",
"|. c #FCDEB1",
" X c #F6E0B0",
".X c #FFE1B3",
"XX c #ABE1C3",
"oX c #B1E3C6",
"OX c #D2EFDF",
"+X c #DEF4E7",
"@X c #E4F6EC",
"#X c #EDF9F2",
"$X c #F3FBF7",
"%X c #FEFFFE",
/* pixels */
"M M M B 9.w.w.w.w.w.9.V N M M M N B B B B B B B B B B B B B B B B B B B B B B B B M M M n N B B B B B B B B B B B B B N M M M M ",
"M M V w.w.w.w.w.w.w.w.9.V M M M N B B B B B B B B B B B B B B B B B B B B E V B B M M M M B B B B B B B B B B B V B B B N M M M ",
"M V 9.9.w.w.w.w.w.w.w.w.9.V M M N B B B B B B B B V B B B B B B B B B B B B B B M M M M N B B B B B B B B B B B B B B B B M M M ",
"V 9.w.w.w.w.w.w.w.g.w.g.w.w.V B B B V E V V V V V V E B B B B B B B B B B B V V B N B B B V V V V V V V V B B B B B B B B M n M ",
"9.g.w.w.w.w.w.g.h.j.j.k.l.l.l.l.l.l.l.l.l.l.l.l.l.k.V B B B B B B B B B B V k.l.l.l.l.l.l.l.l.l.l.l.l.l.k.j.j.g.V V B B B M N B ",
"g.V w.w.9.g.j.l.l.l.k.k.k.k.k.k.l.k.k.k.k.k.k.l.k.j.B B B B B B B B B B B B j.k.k.k.k.k.k.k.k.k.k.k.k.k.k.k.k.l.k.g.V B B M B V ",
"9.9.w.w.g.j.l.l.g.V M M v v v v v v v v v v z v v v N B B B B B B B B B B N v v v v v v v v v v v v v v M N N g.k.l.g.V N M V V ",
"9.g.w.w.g.l.l.B v z z l z l l z l l l l l l l l l v N B B B B B B B B N N n l l l l l l l l l l l l l l l l l v V k.k.V M N B w.",
"w.w.9.g.k.l.w.v l l l l l l l l z l l l l l l l l l B B B B E B B B B N M M z z l z l l l l l l l l l l l l l l v w.k.h.M M M 9.",
"9.w.9.g.k.k.M l l l z z z z z z z z z l l z z l l v N E B B B B B B N M M B z z z z z z z v l l z z z z z l l l z M k.j.B n M B ",
"9.9.w.g.l.k.v l l z M B V V V M n n m M M M M M v z b c c k x j j j d d 7 8 M N N N N E V B M n M M M M n n l l l v k.k.B M M M ",
"B 9.9.g.l.k.v l l z B 9.9.V B M M M b z c k x k ; - - = - - - - * = = * , , 2 2 2 > 3 c M w.B N n B B B B B z l l v k.k.B M M M ",
"n B 9.g.l.k.n l z z V 9.V B n M m x 3 = * & w w e r r o.o.o./ ( ( ( ( ) ) ( ( / r t & & - c E B M M M B B M z l l v k.l.B M M M ",
"M M B 9.l.k.v l l z B V M M M n a = & t / _ ` ` ] { { { { { { { | | | | | | | | | ' ` ( e 3 c N M M M M M M z l l n k.k.B B B B ",
"M M M 9.l.k.v l l z B M M M M a , r _ ] { | | | | | | | | | | | | | | | | | | | | | | | ` e - z M M M M M n z l l v k.k.V B B B ",
"B B n B l.k.v l l z M M M M a > r ] | | | | | | | | | | | | | | | | | | | | | | | | | | { ( = x M M n M M M l l l v k.k.V B B B ",
"B B B B k.k.v l l l M M M N 7 & _ | | | | | | | | | | | | | { |  .{ | | | | | | | | | | | ) = j M M M M n n z l l v k.l.9.B B B ",
"B B B B k.k.v l l z M M B B 8 , ] | | | | | | | | | | ;.U.T.XXXXoXY.n...| | | | | | | | | ` = h M M n M B M z l l v k.l.V B B B ",
"B B B V l.k.v l l l M N B B d , ` | | | | | | | {  .U.OX$X$X%X%X%X%X+XU.X...| | | | | | | ` = h M M M M B M z l l v k.l.V B B B ",
"B B B 9.l.k.v l l z M B B B f , ` | | | | | | | { N.+X%X%X%X%X%X%X%X%X#XU. .| | | | | | | ` = a M M M B B B z l l v k.l.B B V B ",
"B B B V l.k.n l l z M B B B j - ` | | | | | | | 5.OX%X%X%X%X%X%X%X%X%X%X@XB.{ | | | | | | ` , d M M B B B B z l l v k.l.V B B B ",
"B B B V l.k.v l l l M N B B j - ` | | | | | | | U.$X%X%X%X%X%X%X$X#X#X@X+XY.| | | | | | | ` , d M B B B B B z l l v k.l.V B B B ",
"B B B V l.k.v l l l M M B B x = _ | | | | | | ..b.B.B.M.n.n.n.n.b.b.2.2.3.>.:.:.:.:.:.:.:. .1 5 B B B B B B z l l v k.l.V B B B ",
"B B B V l.k.v l l l M M M B x - ` ..:.,.,.,.,.1.,.,.,.1.1.1.1.1.,.1.1.1.1.1.1.1.1.1.1.1.,.>.& 5 B B B B B M z l l v l.l.V B B B ",
"B V B V l.k.v l l z n M M N x = X.1.1.1.1.1.1.1.1.1.1.1.1.1.1.1.,.1.1.1.1.1.1.1.1.1.1.1.1.,.& 4 B B B B B N z l l z k.l.E B B B ",
"B B B V j.j.v v z z n M M M c = } 1.1.1.1.1.1.1.1.1.1.1.1.1.1.1.1.1.1.1.1.1.1.1.1.1.1.1.1.X.& 4 B B B B B N v z z m j.k.V B B B ",
"B B B B V B B N N M M M M M l = @.>.1.1.1.1.1.1.1.1.1.1.1.1.1.4.3.4.4.5.7.m.n.m.m.N.8.&.@.t = 4 B B B B B B B N B M V V B B B B ",
"B B B B B B B B B M M M M M c 3 & @.@.*.K.L.P.P.I.^.^.^.^./././.`.`. X X X X.X X.X.X[.p.> - - ; f B B B B B B B B B B B B B B B ",
"B B B B B B B B M M M M n n x 5 - - ; u.|.|.|.|.{..X.X.X.X.X.X.X.X.X.X.X X_.V.Z.]..X.XW.U Y y.U 6 j B B B B B B B B B B V B B B ",
"B B E B B B B M M M M M M s > I t.q I (..X|.F.t.t.(..X.X.X.X.X.X.X.X.X.X.Xs.q P A..X.X|.A.s.S.C.P d M B B B B B B B B B B B B B ",
"B B B B B B B M M M n M M 3 I V.A.r.Z.|..X.Xy.< ; a..X.X.X.X.X.X.X.X.X.X.XU = - p..X.X.X}.!.F.D.p.- x E B B B B B B V B B B B B ",
"B B B B B B N M M M M M a 6 a.D.D.(.|.|..X.XT - = R .X.X.X.X.X|..X.X.X.X.XT - - u..X.X.X.X_.F.F.f.- s B B B B B B B B B B B B B ",
"B B B B B M n M n M M M f < C.F.D.]..X.X.X.Xy.> > t..X.X.X}.Q.W.!.{..X.X.Xs.6 q Z..X.X.X|._.D.D.p.> h M B B B B B B B B B B B B ",
"B B B B M M M M M M M M f - f.D.D._..X.X.X.XE.U U E..X|.'.!.D.R.E.E.!.}..X].C.Z.]..X.X.X.X!.E.V.I 3 m M N B B B B B B V B B B B ",
"B B B M M M M M M M M M c 6 T Z.D.(.|..X.X.X.X_.].|.}.D.i.V.E.E.E.V.T y._..X.X.X.X.X.X.X}.E.a.P , h M M M M B B B B B B V B B B ",
"B B M M M M M M M M M B B a 6 I f.D.{..X.X.X.X.X.X}.A.P = P T U P y , 2 t.(..X.X.X.X.X.X_.r.= 4 a m M M M M M B B B B B B B B B ",
"M M M M M M M M M N B B B N a 7 < I W..X.X.X.X.X.X_.U = - - - - - - - - > C.|..X.X.X.X.X_.Y 3 b M M M M M M N N B B B B B B B B ",
"M M M M N N n M n M B B B B B M 8 0 A..X.X.X.X.X.X!.q 6 - - - = - - - 6 P A..X.X.X.X.X.XF.2 3 c V V V B M M n n M N V V B B B N ",
"M M M M j.j.v l z v B B B E B M a - s.}..X.X.X.X|.{.S.u.T I U Y T r.y.V.E.}..X.X.X|.}.[.d.+.w 6 c w.w.E V M z z z v j.k.V N M n ",
"M M M B l.k.v l l z M B B B B f , t %.S.).).).~.~.`././.^.^.I.I.P.P.L.L.K.P.z.c.c.c.x.i.=.1.X.w - M w.w.9.B z l l v j.k.N M M M ",
"M M M N l.k.z z l z N B B B f > t >.*.Q ~ ~ ~ ~ ! e.6.5.5.5.4.4.4.4.4.4.2.q.F K J K E =.4.1.1.@.1 j 9.w.9.9.z l l v k.l.B M n M ",
"M n M N l.k.z z l z N B B N d 1 X.1.$.J J J J J J F T <.,.,.1.1.1.1.1.=.$.F J J W z.J.P.P.K.7.>.t > B w.9.9.z l l v k.l.B M M M ",
"M M M N l.k.v z l z N B B c = @.3.6.e.J J J J J J J F Q 0.*.=.-.*.*.$.Q H J J J v.[.|..X.X XI.8.O.- N 9.9.9.z l l v j.l.B M M M ",
"M M M N l.k.z z l z N B B b - [ 8.R.x.J J J J J J J J J J K K J H J H H J J J J H.|..X.X.X.X XL.+.= N 9.9.9.z l l v k.k.B n M M ",
"M M M B l.k.v z l z N B E c = @.P.).x.J J J J J J J J J J G G S S S G H J J J J H.|..X.X.X.X.X!.I 7 B w.9.9.z l l v k.l.B M n M ",
"M M M N l.k.v l l z N B B m - #.`.[.c.J J J J J J J J J S A A Z Z Z A S H J J J G.}..X.X.X.X.X(.I b w.w.9.9.z l l v k.l.M M M M ",
"M M M N k.k.v l l z B B B B x Y !.[.c.J J J J J J J J S A Z Z Z Z Z Z Z S H J J ^ )..X.X.X.X.XW.y c w.w.9.9.z l l v k.l.B M M M ",
"M m M B k.k.v l l z N B B B c P F.}.v.J H g u u # # i C Z Z Z Z Z Z Z Z Z S J J J v.}..X.X.X|.Z., c w.w.9.9.z l l v k.k.B n M M ",
"M M M N l.k.v l l z N 9.N B c 2 C.}.G.F u X   .   . . # i C i g g i g C Z A G J W W G.{.}.{.W.T ; c w.w.9.9.z l l z k.l.B M M M ",
"M M M N l.k.v l l z M N B B v = U D.Q.L X               @ p p p : : : # u i Z D A C Q z.s.s.T > x w.w.w.9.9.z z z v l.l.B M M M ",
"M M M N l.k.v l l z M 9.B B B x 3 U y.9                 . * d k k x = X . X X . . .       $ - x w.w.w.w.9.9.z l z v k.l.9.9.9.9.",
"9.9.M N k.k.v l l z M M B B B N x > %                   . % f M M b = O                   $ - N w.w.w.w.9.9.z l l z k.l.g.9.9.9.",
"9.9.9.B k.k.v l l z n n M M M M M 4 = o                 O * a N M c - % o . .     . . o $ - z V w.w.9.9.9.V z l l v l.l.g.9.9.g.",
"9.9.9.9.k.k.n l l z v m M m n M m z 3 % $ o . . . . o + - 4 x B B M s d = % % % + + * * > h B V 9.E V V B M z l l m k.l.g.9.9.9.",
"9.9.g.9.k.k.B z l l l z l z z z l l k 3 > = = = * - - d s N B B B B M n z 4 3 - ; ; ; : l l z z z z z z z l l l l B l.j.g.w.9.g.",
"9.9.9.g.h.k.g.v l l l l l l l z l l l l h 3 4 4 4 a s n B B B B B B N N M v k k l l l z l l l l z z z l z l l l v g.l.j.9.w.w.9.",
"w.w.9.9.g.l.l.B v l l l l l l l l l l l l l l l l v B B B B B B B B B B N n l l l l l l l l l l l l l l l l z v B k.k.g.g.w.w.w.",
"w.9.9.9.9.g.l.k.V n v v v v v v v v v v v v v v v v B B E B B B B B B E B M v v v v v v v v v v v v v v v v n w.k.l.h.g.9.w.w.w.",
"w.w.9.B M N g.k.l.k.k.k.k.k.k.k.k.k.k.j.k.k.k.l.j.j.V B B B B B B B B B B B j.k.k.k.k.k.k.k.k.k.k.k.k.k.k.k.k.l.l.h.9.9.w.w.g.9.",
"9.9.9.M M n M 9.h.k.l.l.k.l.l.l.l.l.l.j.l.l.l.l.k.k.V B B B B B B B B B B V k.l.l.l.k.k.l.l.l.l.l.l.l.l.l.l.j.h.9.B B 9.w.w.w.9.",
"9.B M M M M M M M B B B B B N B B B 9.9.9.Q V V V V B B B B B B B B B B B B B B B B N B B B N B B B B V V V V N M M M B 9.9.w.w.",
"B M M M M M M M M M n M M M M n M M B B 9.B B B B B B B B B B B B B B B B B B B M M n M n M n M N B B B B B B B B M M M B V 9.9.",
"M M M M M M B V V B M M M M M M M 9.M 9.B B B B B B B B B B B B B B V B B B B B B M M M M M M N B B B B B B B B B N M M M M M M ",
"M M n M M V 9.9.9.9.B M M M M M B B B B M 9.B B B B B B B B V B B B B B B B B B B M n M M M M B B B B B B B B B B B B M M M M M "
};
